<?xml version="1.0" encoding="utf-8"?>
<!-- Generator: Adobe Illustrator 21.1.0, SVG Export Plug-In . SVG Version: 6.00 Build 0)  -->
<svg version="1.1" xmlns="http://www.w3.org/2000/svg" xmlns:xlink="http://www.w3.org/1999/xlink" x="0px" y="0px"
	 viewBox="0 0 277.9 326" style="enable-background:new 0 0 277.9 326;" xml:space="preserve">
<style type="text/css">
	.st0{fill:#FFFFFF;}
	.st1{fill:#D91F27;}
	.st2{fill:#010101;}
	.st3{fill:url(#SVGID_1_);}
	.st4{fill:url(#SVGID_2_);}
	.st5{fill:url(#SVGID_3_);}
	.st6{fill:url(#SVGID_4_);}
	.st7{fill:url(#SVGID_5_);}
	.st8{fill:url(#SVGID_6_);}
	.st9{fill:url(#SVGID_7_);}
	.st10{fill:url(#SVGID_8_);}
	.st11{fill:url(#SVGID_9_);}
	.st12{fill:url(#SVGID_10_);}
	.st13{fill:url(#SVGID_11_);}
	.st14{fill:url(#SVGID_12_);}
	.st15{fill:url(#SVGID_13_);}
	.st16{fill:url(#SVGID_14_);}
	.st17{fill:url(#SVGID_15_);}
	.st18{fill:url(#SVGID_16_);}
	.st19{fill:url(#SVGID_17_);}
	.st20{fill:url(#SVGID_18_);}
	.st21{fill:url(#SVGID_19_);}
	.st22{fill:url(#SVGID_20_);}
	.st23{fill:url(#SVGID_21_);}
	.st24{fill:url(#SVGID_22_);}
	.st25{fill:url(#SVGID_23_);}
	.st26{fill:url(#SVGID_24_);}
	.st27{fill:url(#SVGID_25_);}
	.st28{fill:url(#SVGID_26_);}
	.st29{fill:url(#SVGID_27_);}
	.st30{fill:url(#SVGID_28_);}
	.st31{fill:url(#SVGID_29_);}
	.st32{fill:url(#SVGID_30_);}
	.st33{fill:url(#SVGID_31_);}
	.st34{fill:url(#SVGID_32_);}
	.st35{fill:url(#SVGID_33_);}
	.st36{fill:url(#SVGID_34_);}
	.st37{fill:url(#SVGID_35_);}
	.st38{fill:url(#SVGID_36_);}
	.st39{fill:url(#SVGID_37_);}
	.st40{fill:url(#SVGID_38_);}
	.st41{fill:url(#SVGID_39_);}
	.st42{fill:url(#SVGID_40_);}
	.st43{fill:url(#SVGID_41_);}
	.st44{fill:url(#SVGID_42_);}
	.st45{fill:url(#SVGID_43_);}
</style>
<g id="BEER-ICONS-SET-by-RedKoala">
	<rect id="background" x="-2479.3" y="-646.4" class="st0" width="1587.4" height="1700.8"/>
	<g id="I_LOVE_BEER">
		<g id="I_love">
			<path id="heart_13_" class="st1" d="M-1000.7,696.9c-4.6-10.5-13.4-17.7-23.5-19.2c-1.6-0.2-3.2-0.4-4.7-0.4
				c-11.4,0-19.7,8.5-24.4,13.6c-4.8-5-13-13.6-24.4-13.6c-1.6,0-3.2,0.1-4.7,0.4c-10,1.5-18.8,8.7-23.5,19.2
				c-6,13.4-4.2,29.5,4.8,42.9c9.6,14.4,46.6,36.4,47.6,36.4c0.9,0,38.4-22,48.1-36.4C-996.6,726.4-994.8,710.4-1000.7,696.9z"/>
			<path class="st2" d="M-1131,697.4c1.8,0,3.2-1.4,3.2-3.2v-11.7c0-1.8-1.4-3.2-3.2-3.2h-16.3h-11.7h-16.3c-1.8,0-3.2,1.4-3.2,3.2
				v11.7c0,1.8,1.4,3.2,3.2,3.2h13.1v58.8h-13.1c-1.8,0-3.2,1.4-3.2,3.2v11.7c0,1.8,1.4,3.2,3.2,3.2h16.3h11.7h16.3
				c1.8,0,3.2-1.4,3.2-3.2v-11.7c0-1.8-1.4-3.2-3.2-3.2h-13.1v-58.8H-1131z"/>
		</g>
		<g id="text_1_">
			<path class="st2" d="M-1204.9,910.8h-32.7c-4.7,0-8.1-1.1-10.1-3.2c-2-2.1-3-5.5-3-10.2V816c0-4.8,1-8.2,3.1-10.3s5.4-3.1,10-3.1
				h34.6c5.1,0,9.5,0.3,13.3,1c3.7,0.6,7.1,1.9,10.1,3.7c2.5,1.5,4.8,3.5,6.7,5.8c1.9,2.3,3.4,4.9,4.4,7.8c1,2.8,1.5,5.8,1.5,9
				c0,10.8-5.3,18.7-16,23.8c14,4.5,21.1,13.3,21.1,26.4c0,6.1-1.5,11.5-4.6,16.3c-3.1,4.8-7.2,8.4-12.4,10.7
				c-3.3,1.4-7,2.3-11.2,2.9C-1194.3,910.5-1199.2,910.8-1204.9,910.8z M-1229,819.1v28h19.8c5.4,0,9.6-0.5,12.5-1.5
				c2.9-1,5.2-3,6.7-5.9c1.2-2.1,1.8-4.4,1.8-6.9c0-5.5-1.9-9.1-5.8-10.9c-3.8-1.8-9.7-2.7-17.6-2.7H-1229z M-1206.5,862.8h-22.5
				v31.6h23.2c14.6,0,21.9-5.3,21.9-16c0-5.5-1.9-9.4-5.7-11.9C-1193.3,864-1198.9,862.8-1206.5,862.8z"/>
			<path class="st2" d="M-1093.5,876.6h-38.9c0,4.6,1,8.6,2.7,12.1c1.8,3.5,4.1,6.1,7.1,7.9s6.2,2.7,9.7,2.7c2.4,0,4.6-0.3,6.5-0.8
				c2-0.6,3.9-1.4,5.7-2.7c1.8-1.2,3.5-2.5,5.1-3.9c1.6-1.4,3.6-3.2,6-5.6c1-0.9,2.5-1.3,4.4-1.3c2,0,3.7,0.6,5,1.7
				c1.3,1.1,1.9,2.7,1.9,4.8c0,1.8-0.7,3.9-2.1,6.4c-1.4,2.4-3.5,4.8-6.4,7c-2.8,2.2-6.4,4.1-10.7,5.6s-9.2,2.2-14.8,2.2
				c-12.8,0-22.7-3.7-29.8-11.1c-7.1-7.4-10.6-17.4-10.6-30c0-6,0.9-11.5,2.6-16.6c1.7-5.1,4.3-9.5,7.7-13.1
				c3.4-3.6,7.5-6.4,12.4-8.4c4.9-1.9,10.3-2.9,16.3-2.9c7.8,0,14.4,1.7,20,5c5.6,3.3,9.7,7.6,12.5,12.9c2.8,5.3,4.2,10.6,4.2,16.1
				c0,5.1-1.4,8.4-4.3,9.9C-1084.2,875.9-1088.3,876.6-1093.5,876.6z M-1132.4,865.2h36.1c-0.5-6.9-2.3-12-5.5-15.5
				c-3.2-3.4-7.4-5.1-12.6-5.1c-5,0-9,1.7-12.2,5.2C-1129.8,853.3-1131.7,858.4-1132.4,865.2z"/>
			<path class="st2" d="M-1009.3,876.6h-38.9c0,4.6,1,8.6,2.7,12.1c1.8,3.5,4.1,6.1,7.1,7.9c2.9,1.8,6.2,2.7,9.7,2.7
				c2.4,0,4.6-0.3,6.5-0.8c2-0.6,3.9-1.4,5.7-2.7c1.8-1.2,3.5-2.5,5.1-3.9c1.6-1.4,3.6-3.2,6-5.6c1-0.9,2.5-1.3,4.4-1.3
				c2,0,3.7,0.6,5,1.7c1.3,1.1,1.9,2.7,1.9,4.8c0,1.8-0.7,3.9-2.1,6.4c-1.4,2.4-3.5,4.8-6.4,7c-2.8,2.2-6.4,4.1-10.7,5.6
				c-4.3,1.5-9.2,2.2-14.8,2.2c-12.8,0-22.7-3.7-29.8-11.1c-7.1-7.4-10.6-17.4-10.6-30c0-6,0.9-11.5,2.6-16.6
				c1.7-5.1,4.3-9.5,7.7-13.1c3.4-3.6,7.5-6.4,12.4-8.4c4.9-1.9,10.3-2.9,16.3-2.9c7.8,0,14.4,1.7,20,5c5.6,3.3,9.7,7.6,12.5,12.9
				c2.8,5.3,4.2,10.6,4.2,16.1c0,5.1-1.4,8.4-4.3,9.9C-1000,875.9-1004.1,876.6-1009.3,876.6z M-1048.2,865.2h36.1
				c-0.5-6.9-2.3-12-5.5-15.5c-3.2-3.4-7.4-5.1-12.6-5.1c-5,0-9,1.7-12.2,5.2C-1045.6,853.3-1047.5,858.4-1048.2,865.2z"/>
			<path class="st2" d="M-959.9,883.6v16.8c0,4.1-0.9,7.1-2.8,9.2c-1.9,2-4.3,3.1-7.2,3.1c-2.9,0-5.2-1-7.1-3.1
				c-1.8-2.1-2.8-5.1-2.8-9.2v-56.1c0-9.1,3.2-13.6,9.7-13.6c3.3,0,5.7,1.1,7.1,3.2c1.5,2.1,2.3,5.2,2.4,9.4
				c2.4-4.1,4.8-7.3,7.3-9.4c2.5-2.1,5.8-3.2,10-3.2c4.2,0,8.2,1.1,12.2,3.2c3.9,2.1,5.9,4.9,5.9,8.4c0,2.5-0.8,4.5-2.5,6.1
				c-1.7,1.6-3.5,2.4-5.4,2.4c-0.7,0-2.5-0.5-5.3-1.4c-2.8-0.9-5.3-1.4-7.4-1.4c-2.9,0-5.3,0.8-7.1,2.3c-1.8,1.6-3.3,3.9-4.3,6.9
				c-1,3.1-1.7,6.7-2.1,10.9C-959.7,872.4-959.9,877.5-959.9,883.6z"/>
		</g>
		<g id="Shadow_11_">
			<linearGradient id="SVGID_1_" gradientUnits="userSpaceOnUse" x1="-1206.2426" y1="1025.699" x2="-1206.2426" y2="926.3658">
				<stop  offset="5.000000e-02" style="stop-color:#FFFFFF"/>
				<stop  offset="0.95" style="stop-color:#CDCCCC"/>
			</linearGradient>
			<path class="st3" d="M-1166.9,1009.7c0-10.8-5.3-18.7-16-23.8c14-4.5,21.1-13.3,21.1-26.4c0-6.1-1.5-11.5-4.6-16.3
				c-3.1-4.8-7.2-8.4-12.4-10.7c-3.3-1.4-7-2.3-11.2-2.9c-4.2-0.6-9.2-0.8-14.8-0.8h-32.7c-4.7,0-8.1,1.1-10.1,3.2
				c-2,2.1-3,5.5-3,10.2v81.3c0,0.9,0.1,1.8,0.1,2.6h77.9c1.8-2.2,3.2-4.7,4.2-7.4C-1167.4,1015.8-1166.9,1012.9-1166.9,1009.7z
				 M-1193.9,1017.7c-3.8,1.8-9.7,2.7-17.6,2.7h-17.6v-28h19.8c5.4,0,9.6,0.5,12.5,1.5c2.9,1,5.2,3,6.7,5.9c1.2,2.1,1.8,4.4,1.8,6.9
				C-1188.1,1012.3-1190,1015.9-1193.9,1017.7z M-1189.5,973c-3.8,2.5-9.5,3.7-17,3.7h-22.5v-31.6h23.2c14.6,0,21.9,5.3,21.9,16
				C-1183.8,966.6-1185.7,970.6-1189.5,973z"/>
			<linearGradient id="SVGID_2_" gradientUnits="userSpaceOnUse" x1="-1114.89" y1="1025.6987" x2="-1114.89" y2="926.365">
				<stop  offset="5.000000e-02" style="stop-color:#FFFFFF"/>
				<stop  offset="0.95" style="stop-color:#CDCCCC"/>
			</linearGradient>
			<path class="st4" d="M-1152.7,967.9c0,6,0.9,11.5,2.6,16.6c1.7,5.1,4.3,9.5,7.7,13.1c3.4,3.6,7.5,6.4,12.4,8.4
				c4.9,1.9,10.3,2.9,16.3,2.9c7.8,0,14.4-1.7,20-5c5.6-3.3,9.7-7.6,12.5-12.9c2.8-5.3,4.2-10.6,4.2-16.1c0-5.1-1.4-8.4-4.3-9.9
				c-2.9-1.5-6.9-2.3-12.1-2.3h-38.9c0-4.6,1-8.6,2.7-12.1c1.8-3.5,4.1-6.1,7.1-7.9c2.9-1.8,6.2-2.7,9.7-2.7c2.4,0,4.6,0.3,6.5,0.8
				c2,0.6,3.9,1.4,5.7,2.7c1.8,1.2,3.5,2.5,5.1,3.9c1.6,1.4,3.6,3.2,6,5.6c1,0.9,2.5,1.3,4.4,1.3c2,0,3.7-0.6,5-1.7
				c1.3-1.1,1.9-2.7,1.9-4.8c0-1.8-0.7-3.9-2.1-6.4c-1.4-2.4-3.5-4.8-6.4-7c-2.8-2.2-6.4-4.1-10.7-5.6s-9.2-2.2-14.8-2.2
				c-12.8,0-22.7,3.7-29.8,11.1C-1149.2,945.3-1152.7,955.3-1152.7,967.9z M-1096.3,974.3c-0.5,6.9-2.3,12-5.5,15.5
				c-3.2,3.4-7.4,5.1-12.6,5.1c-5,0-9-1.7-12.2-5.2c-3.2-3.5-5.1-8.6-5.8-15.4H-1096.3z"/>
			<linearGradient id="SVGID_3_" gradientUnits="userSpaceOnUse" x1="-1030.6791" y1="1025.6987" x2="-1030.6791" y2="926.365">
				<stop  offset="5.000000e-02" style="stop-color:#FFFFFF"/>
				<stop  offset="0.95" style="stop-color:#CDCCCC"/>
			</linearGradient>
			<path class="st5" d="M-1068.5,967.9c0,6,0.9,11.5,2.6,16.6c1.7,5.1,4.3,9.5,7.7,13.1c3.4,3.6,7.5,6.4,12.4,8.4
				c4.9,1.9,10.3,2.9,16.3,2.9c7.8,0,14.4-1.7,20-5c5.6-3.3,9.7-7.6,12.5-12.9c2.8-5.3,4.2-10.6,4.2-16.1c0-5.1-1.4-8.4-4.3-9.9
				c-2.9-1.5-6.9-2.3-12.1-2.3h-38.9c0-4.6,1-8.6,2.7-12.1c1.8-3.5,4.1-6.1,7.1-7.9c2.9-1.8,6.2-2.7,9.7-2.7c2.4,0,4.6,0.3,6.5,0.8
				c2,0.6,3.9,1.4,5.7,2.7c1.8,1.2,3.5,2.5,5.1,3.9c1.6,1.4,3.6,3.2,6,5.6c1,0.9,2.5,1.3,4.4,1.3c2,0,3.7-0.6,5-1.7
				c1.3-1.1,1.9-2.7,1.9-4.8c0-1.8-0.7-3.9-2.1-6.4c-1.4-2.4-3.5-4.8-6.4-7c-2.8-2.2-6.4-4.1-10.7-5.6c-4.3-1.5-9.2-2.2-14.8-2.2
				c-12.8,0-22.7,3.7-29.8,11.1C-1065,945.3-1068.5,955.3-1068.5,967.9z M-1012.1,974.3c-0.5,6.9-2.3,12-5.5,15.5
				c-3.2,3.4-7.4,5.1-12.6,5.1c-5,0-9-1.7-12.2-5.2c-3.2-3.5-5.1-8.6-5.8-15.4H-1012.1z"/>
			<linearGradient id="SVGID_4_" gradientUnits="userSpaceOnUse" x1="-952.4945" y1="1025.6976" x2="-952.4945" y2="926.3657">
				<stop  offset="5.000000e-02" style="stop-color:#FFFFFF"/>
				<stop  offset="0.95" style="stop-color:#CDCCCC"/>
			</linearGradient>
			<path class="st6" d="M-977.1,929.9c-1.8,2.1-2.8,5.1-2.8,9.2v56.1c0,9.1,3.2,13.6,9.7,13.6c3.3,0,5.7-1.1,7.1-3.2
				c1.5-2.1,2.3-5.2,2.4-9.4c2.4,4.1,4.8,7.3,7.3,9.4c2.5,2.1,5.8,3.2,10,3.2c4.2,0,8.2-1.1,12.2-3.2c3.9-2.1,5.9-4.9,5.9-8.4
				c0-2.5-0.8-4.5-2.5-6.1c-1.7-1.6-3.5-2.4-5.4-2.4c-0.7,0-2.5,0.5-5.3,1.4c-2.8,0.9-5.3,1.4-7.4,1.4c-2.9,0-5.3-0.8-7.1-2.3
				c-1.8-1.6-3.3-3.9-4.3-6.9c-1-3.1-1.7-6.7-2.1-10.9c-0.4-4.2-0.6-9.3-0.6-15.4v-16.8c0-4.1-0.9-7.1-2.8-9.2
				c-1.9-2-4.3-3.1-7.2-3.1C-972.9,926.8-975.2,927.9-977.1,929.9z"/>
		</g>
	</g>
	<g id="BEER_BOTTLE_CAP_1_">
		<path class="st2" d="M-1328.9,756.7l0-0.3c-0.1-1.3-2.2-2.9-4.5-4.4c-0.9-0.6-1.9-1.3-3.1-2c-4.6-3-9.8-6.6-12.3-12.3h-0.2l-0.2-1
			c-0.7-4.5-1.5-9-2.6-13.4l0-0.1l0-0.1V723l-0.1-0.7l0.2-0.1c0.2-6.3,3.5-11.6,6.7-16.2c0.8-1,1.5-2,2.1-3c1.4-2,2.9-4.5,2.4-5.7
			l-0.2-0.4l-0.1-0.3c-0.6-1.2-3.1-1.8-5.8-2.4c-1.1-0.2-2.3-0.5-3.6-0.6c-5.4-1-11.6-2.3-16.1-6.7l-0.2,0.1l-0.4-0.7l0,0l0,0
			l-0.1-0.2c-2.3-3.9-4.9-7.7-7.6-11.3l-0.1-0.2l0,0l0,0l-0.4-0.7l0.1-0.1c-2.2-5.9-1.2-12.1,0-17.5c0.3-1.2,0.6-2.4,0.8-3.6
			c0.5-2.4,1-5.3,0.1-6.2l-0.3-0.3l-0.2-0.2c-0.4-0.4-1.1-0.5-2-0.5c-1,0-2.3,0.2-4.3,0.6c-1.1,0.2-2.3,0.5-3.6,0.8
			c-3.1,0.7-6.4,1.3-9.8,1.3c-2.8,0-5.3-0.4-7.6-1.3l-0.2,0.2l-0.8-0.6c-3.6-2.7-7.4-5.2-11.3-7.6l-0.1-0.1l-0.1,0l0-0.1l-0.6-0.4
			l0.1-0.2c-4.3-4.6-5.7-10.7-6.7-16.2c-0.2-1.3-0.4-2.5-0.6-3.6c-0.5-2.4-1.1-5.3-2.3-5.8l-0.4-0.1l-0.2-0.1
			c-0.2-0.1-0.3-0.1-0.6-0.1c-1.3,0-3.4,1.3-5.2,2.6c-1,0.6-1.9,1.3-3,2.1c-4.5,3.2-9.8,6.5-16.1,6.7l-0.1,0.2l-0.7-0.2h-0.1l-0.1,0
			l-0.1,0c-4.4-1.1-8.9-2-13.4-2.6l-0.2,0l0,0l0,0l-0.8-0.1v-0.2c-5.7-2.6-9.4-7.7-12.4-12.4c-0.6-1.1-1.3-2.1-2-3.1
			c-1.4-2.1-3.1-4.4-4.3-4.4l-0.4,0l-0.3,0c-1.3,0.1-2.9,2.2-4.4,4.5c-0.6,0.9-1.3,1.9-2,3.1c-3,4.6-6.6,9.8-12.3,12.3v0.2l-1,0.2
			c-4.5,0.7-9,1.5-13.4,2.6l-0.1,0l-0.1,0h-0.1l-0.7,0.2l-0.1-0.2c-6.3-0.2-11.6-3.5-16.2-6.7c-1-0.8-2-1.5-3-2.1
			c-1.7-1.2-3.9-2.5-5.2-2.5c-0.2,0-0.4,0-0.5,0.1l-0.4,0.2l-0.3,0.1c-1.2,0.6-1.8,3.1-2.4,5.8c-0.2,1.1-0.5,2.3-0.6,3.6
			c-1,5.4-2.3,11.6-6.7,16.1l0.1,0.2l-0.7,0.4l0,0l0,0l-0.2,0.1c-3.9,2.3-7.7,4.9-11.3,7.6l-0.2,0.1l0,0l0,0l-0.6,0.4l-0.1-0.1
			c-2.3,0.9-4.8,1.3-7.6,1.3c-3.4,0-6.8-0.6-9.9-1.3c-1.2-0.3-2.4-0.6-3.6-0.8c-1.9-0.4-3.2-0.6-4.2-0.6c-1,0-1.7,0.2-2,0.5
			l-0.3,0.3l-0.2,0.2c-0.9,1-0.5,3.6,0.1,6.3c0.2,1.1,0.5,2.3,0.8,3.6c1.2,5.4,2.3,11.6,0,17.4l0.2,0.2l-0.6,0.8
			c-2.7,3.6-5.2,7.4-7.6,11.3l-0.1,0.1l0,0.1l0,0l-0.4,0.6l-0.2-0.1c-4.6,4.3-10.7,5.7-16.2,6.7c-1.3,0.2-2.5,0.4-3.6,0.6
			c-2.4,0.5-5.3,1.1-5.8,2.3l-0.1,0.4l-0.1,0.2c-0.5,1.3,0.9,3.5,2.5,5.8c0.6,0.9,1.3,1.9,2.1,3c3.2,4.5,6.5,9.8,6.7,16.1l0.2,0.1
			l-0.2,0.7v0.1l0,0.1l0,0.1c-1.1,4.4-2,8.9-2.6,13.4l0,0.2v0.1l0,0l-0.1,0.8h-0.2c-2.6,5.7-7.7,9.4-12.4,12.4
			c-1.1,0.6-2.1,1.3-3.1,2c-2.1,1.4-4.4,3.1-4.4,4.3l0,0.4l0,0.3c0.1,1.3,2.2,2.9,4.5,4.4c0.9,0.6,1.9,1.3,3.1,2
			c4.6,3,9.8,6.6,12.3,12.3h0.2l0.2,1c0.7,4.5,1.5,9,2.6,13.4l0,0.1l0,0.1v0.1l0.1,0.7l-0.2,0.1c-0.2,6.3-3.5,11.6-6.7,16.2
			c-0.8,1-1.5,2-2.1,3c-1.4,2-2.9,4.5-2.4,5.7l0.2,0.4l0.1,0.3c0.6,1.2,3.1,1.8,5.8,2.4c1.1,0.2,2.3,0.5,3.6,0.6
			c5.4,1,11.6,2.3,16.1,6.6l0.2-0.1l0.4,0.7l0,0l0,0l0.1,0.2c2.3,3.9,4.9,7.7,7.6,11.3l0.1,0.2l0,0l0,0l0.4,0.6l-0.1,0.1
			c2.2,5.9,1.2,12.1,0,17.5c-0.3,1.2-0.6,2.4-0.8,3.6c-0.5,2.4-1,5.3-0.1,6.2l0.3,0.3l0.2,0.2c0.4,0.4,1.1,0.5,2,0.5
			c1,0,2.3-0.2,4.3-0.6c1.1-0.2,2.3-0.5,3.6-0.8c3.1-0.7,6.4-1.3,9.8-1.3c2.8,0,5.3,0.4,7.6,1.3l0.2-0.2l0.8,0.6
			c3.6,2.7,7.4,5.2,11.3,7.6l0.1,0.1l0.1,0l0,0.1l0.6,0.4l-0.1,0.2c4.3,4.6,5.7,10.7,6.7,16.2c0.2,1.3,0.4,2.5,0.6,3.6
			c0.5,2.4,1.1,5.3,2.3,5.8l0.4,0.1l0.2,0.1c0.2,0.1,0.3,0.1,0.6,0.1c1.3,0,3.4-1.3,5.2-2.5c0.9-0.6,1.9-1.3,3-2.1
			c4.5-3.2,9.8-6.5,16.1-6.7l0.1-0.2l0.7,0.2h0.1l0.1,0l0.1,0c4.4,1.1,8.9,2,13.4,2.6l0.2,0l0,0l0,0l0.8,0.1v0.2
			c5.7,2.6,9.4,7.7,12.4,12.4c0.6,1.1,1.3,2.1,2,3.1c1.3,2.1,3.1,4.4,4.4,4.4l0.4,0l0.3,0c1.3-0.1,2.9-2.2,4.4-4.5
			c0.6-0.9,1.3-1.9,2-3.1c3-4.6,6.6-9.8,12.3-12.3v-0.2l1-0.2c4.5-0.7,9-1.5,13.4-2.6l0.1,0l0.1,0h0.1l0.7-0.2l0.1,0.2
			c6.3,0.2,11.6,3.5,16.1,6.7c1,0.8,2,1.5,3,2.1c1.7,1.2,3.9,2.5,5.2,2.5c0.2,0,0.4,0,0.5-0.1l0.4-0.2l0.3-0.1
			c1.2-0.6,1.8-3.1,2.4-5.8c0.2-1.1,0.5-2.3,0.6-3.6c1-5.4,2.3-11.6,6.7-16.1l-0.1-0.2l0.7-0.4l0,0l0,0l0.2-0.1
			c3.9-2.3,7.7-4.9,11.3-7.6l0.2-0.1l0,0l0,0l0.7-0.4l0.1,0.1c2.3-0.9,4.8-1.3,7.6-1.3c3.4,0,6.8,0.6,9.9,1.3
			c1.2,0.3,2.4,0.6,3.6,0.8c1.9,0.4,3.2,0.6,4.2,0.6c1,0,1.7-0.2,2-0.5l0.3-0.3l0.2-0.2c0.9-1,0.5-3.6-0.1-6.3
			c-0.2-1.1-0.5-2.3-0.8-3.6c-1.2-5.4-2.3-11.6,0-17.4l-0.2-0.2l0.6-0.8c2.7-3.6,5.2-7.4,7.6-11.3l0.1-0.1l0-0.1l0,0l0.4-0.6
			l0.2,0.1c4.6-4.3,10.7-5.7,16.2-6.7c1.3-0.2,2.5-0.4,3.6-0.6c2.4-0.5,5.3-1.1,5.8-2.3l0.1-0.4l0.1-0.2c0.5-1.3-0.9-3.5-2.5-5.8
			c-0.6-0.9-1.3-1.9-2.1-3c-3.2-4.5-6.5-9.8-6.7-16.1l-0.2-0.1l0.2-0.7v-0.1l0-0.1l0-0.1c1.1-4.4,2-8.9,2.6-13.4l0-0.2v-0.1l0-0.1
			l0.1-0.7h0.2c2.6-5.7,7.7-9.4,12.4-12.4c1.1-0.7,2.1-1.3,3.1-2c2.1-1.4,4.4-3.1,4.4-4.3L-1328.9,756.7z M-1484.7,881
			c-68.5,0-124.3-55.7-124.3-124.3s55.7-124.3,124.3-124.3s124.3,55.7,124.3,124.3S-1416.2,881-1484.7,881z"/>
		<path class="st2" d="M-1484.7,642.5c-63,0-114.3,51.3-114.3,114.3c0,63,51.3,114.3,114.3,114.3s114.3-51.3,114.3-114.3
			C-1370.5,693.7-1421.7,642.5-1484.7,642.5z M-1523,695.6l0.4-0.3v-10.2c0-1.2,1-2.2,2.2-2.2c1.2,0,2.2,1,2.2,2.2v10.2l0.4,0.3
			c2.9,2,6,6.8,6,12.5c0,7.7-5.7,13.5-8.6,13.5s-8.6-5.8-8.6-13.5C-1529,702.4-1525.9,697.6-1523,695.6z M-1544.3,685.1
			c0-1.2,1-2.2,2.2-2.2s2.2,1,2.2,2.2V719l0.9,0c3.2-0.1,8,1.1,11.6,4.7c3.3,3.3,4.3,7.1,4.6,9.1c0.5,3.3-0.2,5.6-1.1,6.5
			c-0.8,0.8-2.4,1.2-4.4,1.2c-3.2,0-7.8-1.2-11.3-4.7c-3.8-3.8-4.9-8.8-4.7-12l0-0.1l0-0.1c0-0.1,0-0.2,0-0.3V685.1z M-1523.9,762.7
			c-0.8,0.8-2.4,1.2-4.4,1.2c-3.2,0-7.8-1.2-11.3-4.7c-3.3-3.3-4.3-7.1-4.6-9.1c-0.5-3.3,0.2-5.6,1.1-6.5c0.8-0.8,2.4-1.2,4.4-1.2
			c3.2,0,7.8,1.2,11.3,4.7C-1522,752.5-1521.9,760.7-1523.9,762.7z M-1539.5,782.6c-3.3-3.3-4.3-7.1-4.6-9.1
			c-0.5-3.3,0.2-5.6,1.1-6.5c0.8-0.8,2.4-1.2,4.4-1.2c3.2,0,7.8,1.2,11.3,4.7c5.4,5.4,5.5,13.6,3.5,15.6c-0.8,0.8-2.4,1.2-4.4,1.2
			C-1531.4,787.3-1536,786.1-1539.5,782.6z M-1515.3,831.7h-10.2v-39.6c1.9-0.3,3.7-1,5.1-1.9c1.4,0.9,3.1,1.6,5.1,1.9V831.7z
			 M-1496.7,773.5c-0.3,2-1.3,5.8-4.6,9.1c-3.5,3.5-8.1,4.7-11.3,4.7c-2,0-3.6-0.5-4.4-1.2c-2-2-1.9-10.2,3.5-15.6
			c3.5-3.5,8.1-4.7,11.3-4.7c2,0,3.6,0.5,4.4,1.2C-1496.9,767.9-1496.2,770.2-1496.7,773.5z M-1513.4,747.1
			c3.5-3.5,8.1-4.7,11.3-4.7c2,0,3.6,0.5,4.4,1.2c0.9,0.9,1.6,3.3,1.1,6.5c-0.3,2-1.3,5.8-4.6,9.1c-3.5,3.5-8.1,4.7-11.3,4.7
			c-2,0-3.6-0.5-4.4-1.2C-1518.9,760.7-1518.9,752.5-1513.4,747.1z M-1496.5,723.4c0,0.1,0,0.2,0,0.3l0,0.1l0,0.1
			c0.2,3.2-0.9,8.2-4.7,12c-3.5,3.5-8.1,4.7-11.3,4.7c-2,0-3.6-0.5-4.4-1.2c-0.9-0.9-1.6-3.3-1.1-6.5c0.3-2,1.3-5.8,4.6-9.1
			c3.5-3.5,8.1-4.7,11.3-4.7c0.1,0,0.2,0,0.4,0l0.9,0v-35c0-1.2,1-2.2,2.2-2.2s2.2,1,2.2,2.2V723.4z M-1451.6,695.6l0.4-0.3v-10.2
			c0-1.2,1-2.2,2.2-2.2c1.2,0,2.2,1,2.2,2.2v10.2l0.4,0.3c2.9,2,6,6.8,6,12.5c0,7.7-5.7,13.5-8.6,13.5c-2.9,0-8.6-5.8-8.6-13.5
			C-1457.7,702.4-1454.5,697.6-1451.6,695.6z M-1473,685.1c0-1.2,1-2.2,2.2-2.2c1.2,0,2.2,1,2.2,2.2V719l0.9,0
			c3.2-0.1,8,1.1,11.6,4.7c3.3,3.3,4.3,7.1,4.6,9.1c0.5,3.3-0.2,5.6-1.1,6.5c-0.8,0.8-2.4,1.2-4.4,1.2c-3.2,0-7.8-1.2-11.3-4.7
			c-3.8-3.8-4.9-8.8-4.7-12l0-0.1l0-0.1c0-0.1,0-0.2,0-0.3V685.1z M-1452.6,762.7c-0.8,0.8-2.4,1.2-4.4,1.2c-3.2,0-7.8-1.2-11.3-4.7
			c-3.3-3.3-4.3-7.1-4.6-9.1c-0.5-3.3,0.2-5.6,1.1-6.5c0.8-0.8,2.4-1.2,4.4-1.2c3.2,0,7.8,1.2,11.3,4.7
			C-1450.6,752.5-1450.5,760.7-1452.6,762.7z M-1468.2,782.6c-3.3-3.3-4.3-7.1-4.6-9.1c-0.5-3.3,0.2-5.6,1.1-6.5
			c0.8-0.8,2.4-1.2,4.4-1.2c3.2,0,7.8,1.2,11.3,4.7c5.4,5.4,5.5,13.6,3.5,15.6c-0.8,0.8-2.4,1.2-4.4,1.2
			C-1460.1,787.3-1464.7,786.1-1468.2,782.6z M-1444,831.7h-10.2v-39.6c1.9-0.3,3.7-1,5.1-1.9c1.4,0.9,3.1,1.6,5.1,1.9V831.7z
			 M-1425.4,773.5c-0.3,2-1.3,5.8-4.6,9.1c-3.5,3.5-8.1,4.7-11.3,4.7c-2,0-3.6-0.5-4.4-1.2c-2-2-1.9-10.2,3.5-15.6
			c3.5-3.5,8.1-4.7,11.3-4.7c2,0,3.6,0.5,4.4,1.2C-1425.6,767.9-1424.9,770.2-1425.4,773.5z M-1442.1,747.1
			c3.5-3.5,8.1-4.7,11.3-4.7c2,0,3.6,0.5,4.4,1.2c0.9,0.9,1.6,3.3,1.1,6.5c-0.3,2-1.3,5.8-4.6,9.1c-3.5,3.5-8.1,4.7-11.3,4.7
			c-2,0-3.6-0.5-4.4-1.2C-1447.6,760.7-1447.5,752.5-1442.1,747.1z M-1425.2,723.4c0,0.1,0,0.2,0,0.3l0,0.1l0,0.1
			c0.2,3.2-0.9,8.2-4.7,12c-3.5,3.5-8.1,4.7-11.3,4.7c-2,0-3.6-0.5-4.4-1.2c-0.9-0.9-1.6-3.3-1.1-6.5c0.3-2,1.3-5.8,4.6-9.1
			c3.5-3.5,8.1-4.7,11.3-4.7c0.1,0,0.2,0,0.4,0l0.9,0v-35c0-1.2,1-2.2,2.2-2.2c1.2,0,2.2,1,2.2,2.2V723.4z"/>
		<g id="Shadow_10_">
			<linearGradient id="SVGID_5_" gradientUnits="userSpaceOnUse" x1="-1484.756" y1="1025.699" x2="-1484.756" y2="926.365">
				<stop  offset="5.000000e-02" style="stop-color:#FFFFFF"/>
				<stop  offset="0.95" style="stop-color:#CDCCCC"/>
			</linearGradient>
			<path class="st7" d="M-1340.6,1023.4l-0.1-0.2l-0.1-0.4c-0.5-1.2-3.3-1.9-5.8-2.3c-1.1-0.3-2.3-0.5-3.6-0.6
				c-5.5-1-11.6-2.4-16.2-6.7l-0.2,0.1l-0.4-0.6l0,0l0-0.1l-0.1-0.1c-2.3-3.9-4.9-7.7-7.6-11.3l-0.6-0.8l0.2-0.2
				c-2.2-5.9-1.2-12.1,0-17.4c0.3-1.3,0.6-2.5,0.8-3.6c0.6-2.7,1-5.3,0.1-6.3l-0.2-0.2l-0.3-0.3c-0.3-0.3-1-0.5-2-0.5
				c-1,0-2.3,0.2-4.2,0.6c-1.1,0.2-2.3,0.5-3.6,0.8c-3.2,0.7-6.5,1.3-9.9,1.3c-2.8,0-5.3-0.4-7.6-1.3l-0.1,0.1l-0.7-0.4l0,0l0,0
				l-0.2-0.1c-3.6-2.7-7.4-5.2-11.3-7.6l-0.2-0.1l0,0l0,0l-0.7-0.4l0.1-0.2c-4.3-4.6-5.7-10.7-6.7-16.1c-0.2-1.3-0.4-2.5-0.6-3.6
				c-0.5-2.7-1.2-5.3-2.4-5.8l-0.3-0.1l-0.4-0.2c-0.1-0.1-0.3-0.1-0.5-0.1c-1.3,0-3.5,1.4-5.2,2.5c-1,0.6-2,1.3-3,2.1
				c-4.6,3.2-9.9,6.6-16.1,6.7l-0.1,0.2l-0.7-0.2h-0.1l-0.1,0l-0.1,0c-4.4-1.1-8.9-2-13.4-2.6l-1-0.2v-0.2
				c-5.7-2.6-9.4-7.7-12.3-12.3c-0.7-1.1-1.3-2.2-2-3.1c-1.5-2.3-3.1-4.4-4.4-4.5l-0.3,0l-0.4,0c-1.3,0-3,2.4-4.4,4.4
				c-0.7,1-1.3,2-2,3.1c-3,4.7-6.6,9.8-12.4,12.4v0.2l-0.8,0.1l0,0l0,0l-0.2,0c-4.5,0.7-9,1.5-13.4,2.6l-0.1,0l-0.1,0h-0.1l-0.7,0.2
				l-0.1-0.2c-6.3-0.2-11.6-3.5-16.1-6.7c-1.1-0.8-2.1-1.5-3-2.1c-1.9-1.3-3.9-2.5-5.2-2.5c-0.2,0-0.4,0-0.6,0.1l-0.2,0.1l-0.4,0.1
				c-1.2,0.5-1.9,3.3-2.3,5.8c-0.2,1.1-0.5,2.3-0.6,3.6c-1,5.5-2.4,11.6-6.7,16.2l0.1,0.2l-0.6,0.4l0,0.1l-0.1,0l-0.1,0.1
				c-3.9,2.3-7.7,4.9-11.3,7.6l-0.8,0.6l-0.2-0.2c-2.3,0.9-4.8,1.3-7.6,1.3c-3.4,0-6.7-0.6-9.8-1.3c-1.3-0.3-2.5-0.6-3.6-0.8
				c-2-0.4-3.3-0.6-4.3-0.6c-1,0-1.6,0.2-2,0.5l-0.2,0.2l-0.3,0.3c-0.9,0.9-0.4,3.8,0.1,6.2c0.2,1.1,0.5,2.3,0.8,3.6
				c1.2,5.4,2.3,11.7,0,17.5l0.1,0.1l-0.4,0.6l0,0l0,0l-0.1,0.2c-2.7,3.6-5.2,7.4-7.6,11.3l-0.1,0.2l0,0l0,0l-0.4,0.7l-0.2-0.1
				c-4.6,4.3-10.7,5.7-16.1,6.6c-1.3,0.2-2.5,0.4-3.6,0.6c-2.7,0.5-5.3,1.2-5.8,2.4l-0.1,0.3l-0.2,0.4c-0.2,0.6,0,1.6,0.6,2.6h33
				c20.6-40.1,62.4-67.6,110.6-67.6s89.9,27.5,110.6,67.6h33C-1340.6,1025-1340.4,1024-1340.6,1023.4z"/>
			<linearGradient id="SVGID_6_" gradientUnits="userSpaceOnUse" x1="-1484.7455" y1="1025.699" x2="-1484.7455" y2="926.3639">
				<stop  offset="5.000000e-02" style="stop-color:#FFFFFF"/>
				<stop  offset="0.95" style="stop-color:#CDCCCC"/>
			</linearGradient>
			<path class="st8" d="M-1484.7,968.5c-42.4,0-79.4,23.2-99.2,57.6h58.4v-18.3h10.2v18.3h61.2v-18.3h10.2v18.3h58.4
				C-1405.3,991.7-1442.4,968.5-1484.7,968.5z"/>
		</g>
	</g>
	<g id="BEER_BOTTLE_3">
		<g id="hops">
			<path id="bottom_1_" class="st2" d="M-1885.3,823.7v9.6c-0.3-0.3-0.6-0.7-0.9-1c-2.2-2.2-5.2-3.5-8.3-3.5c-3.2,0-6.1,1.2-8.3,3.5
				c-1.9,1.9-2.9,4.4-2.9,7.1c0,2.7,1,5.2,2.9,7.1c3.3,3.3,8.6,3.3,11.9,0c2.1-2.1,2.7-5.4,1.5-8.1c-0.5-1.2-1.9-1.7-3.1-1.2
				c-1.2,0.5-1.7,1.9-1.2,3.1c0.4,0.9,0.2,2.1-0.5,2.8c-1.4,1.4-3.8,1.4-5.2,0c-1-1-1.5-2.3-1.5-3.7c0-1.4,0.5-2.7,1.5-3.7
				c1.3-1.4,3.1-2.1,5-2.1s3.6,0.8,5,2.1c2.4,2.3,4.1,5.3,4.2,8.5v12.1h7.5v-32.5c0,0-0.5,0.3-3.7,0.3
				C-1884.9,824-1885.3,823.7-1885.3,823.7z"/>
			<g id="top_1_">
				<path class="st2" d="M-1881.6,779.9c-0.5,0.3-0.9,0.6-1.3,0.9c-6.4,4.3-8.7,9.1-9.3,13.1l0,0c1.7,1.1,3.4,2.4,4.9,3.9
					c2.5,2.6,4.4,5.7,5.8,9.2c1.3-3.6,3.3-6.7,5.8-9.2c1.5-1.6,3.2-2.8,4.9-3.9C-1871.6,789.5-1874.2,784.4-1881.6,779.9z"/>
				<path class="st2" d="M-1906.5,766.3c0.1,0,0.1,0.1,0.2,0.1c2.8,1.4,6.1,3.6,9.7,6.8c0.1,0,0.1,0.1,0.2,0.1c0-0.1,0-0.1,0.1-0.2
					c2.1-5.5,4.5-9.5,6.7-12.3c0.1-0.2,0.3-0.4,0.4-0.6c-4.2-9-8.8-12.8-10.9-14.2c-1.9,2-6.2,7.6-8,19.4h0c0.4,0.2,0.8,0.4,1.2,0.6
					C-1906.8,766.2-1906.7,766.2-1906.5,766.3z"/>
				<path class="st2" d="M-1874,760.3c2.3,2.9,5,7,7.1,12.9c0,0.1,0,0.1,0.1,0.2c0.1,0,0.1-0.1,0.2-0.1c4.5-4,8.5-6.4,11.5-7.7h0
					c-1.8-11.9-6-17.4-8-19.4C-1865.1,747.5-1869.8,751.4-1874,760.3C-1873.9,760.3-1874,760.3-1874,760.3z"/>
				<path class="st2" d="M-1881.6,759.4c-2.2,1.6-7.4,6.5-11.1,17.6c0,0,0,0,0,0c0.9,1,1.9,2.1,2.9,3.2l0,0c1.9-1.8,4.2-3.5,7.1-5.2
					c0.3-0.2,0.7-0.3,1.1-0.3c0.4,0,0.8,0.1,1.2,0.3c2.9,1.6,5.2,3.4,7.1,5.2c0,0,0,0,0,0c1-1.1,1.9-2.2,2.9-3.2
					C-1874.2,765.9-1879.4,761.1-1881.6,759.4z"/>
				<path class="st2" d="M-1914,788.9C-1914,788.9-1914,788.9-1914,788.9c0.2,0,0.4,0,0.6,0c0.1,0,0.2,0,0.3,0c0.3,0,0.7,0,1,0
					c4.5,0,10.2,0.6,15.5,2.7c0.6-2.5,1.7-5.1,3.6-7.8c0,0,0,0,0,0c-9.4-11.5-17.2-14.4-20.3-15.1
					C-1914.4,771.2-1916.3,777.7-1914,788.9L-1914,788.9z"/>
				<path class="st2" d="M-1870.2,783.8C-1870.2,783.8-1870.2,783.8-1870.2,783.8c0.2,0.3,0.5,0.7,0.7,1c0,0,0,0,0,0
					c1.1,1.6,1.8,3.2,2.3,4.8c0,0,0,0.1,0,0.1c0.1,0.3,0.2,0.6,0.3,0.9c0,0,0,0,0,0.1c0.1,0.3,0.2,0.6,0.2,0.9
					c5.3-2.2,10.9-2.7,15.5-2.7c0.7,0,1.3,0,1.9,0c2.3-11.2,0.4-17.7-0.7-20.2C-1852.9,769.5-1860.8,772.5-1870.2,783.8z"/>
				<path class="st2" d="M-1885.6,756.6c1.7-1.4,2.8-2,3-2.1l0.5-0.2h1.1l0.5,0.2c0.2,0.1,1.3,0.7,3,2.1h0.2
					c1.8-3.6,3.7-6.4,5.5-8.6c-3.1-9.9-7.7-14.2-9.7-15.6c-2,1.5-6.6,5.9-9.7,15.7c1.8,2.2,3.6,5,5.5,8.5
					C-1885.8,756.6-1885.7,756.6-1885.6,756.6z"/>
				<path class="st2" d="M-1890.7,801.1c-6-6.1-14.9-7.4-21.3-7.4c-3.5,0-6.5,0.4-8.4,0.7c1.3,13.9,17,25,36.5,25.8
					C-1884.2,811.9-1886.4,805.5-1890.7,801.1z"/>
				<path class="st2" d="M-1851.1,793.7c-6.5,0-15.4,1.3-21.3,7.4c-4.3,4.4-6.5,10.8-6.8,19.1c19.5-0.8,35.1-11.9,36.5-25.8
					C-1844.6,794-1847.6,793.7-1851.1,793.7z"/>
			</g>
		</g>
		<path id="bottle_1_" class="st2" d="M-1839.6,661.3c-2.7-4.7-5.1-10.6-6.5-19.3l0-0.1l-12.3-97.6c1.5-0.5,2.5-1.5,2.5-2.7
			l-1.4-6.3c0,0-1.1-6.3-2.9-11.2c0.5,0.5,1.3,1.2,2.6,1.2c1.4,0,0.8-4,0.8-4c0-3-2.5-5.4-5.7-5.4h-2.1h-34.1h-2.1
			c-3.1,0-5.7,2.4-5.7,5.4v3.1c-0.1,0.5,0.1,0.9,0.7,0.9c1.3,0,2.1-0.7,2.6-1.2c0,0,0.1,0,0.1-0.1c0,0,0,0,0,0
			c-1.8,4.9-3,11.3-3,11.3l-1.4,6.3c0,1.2,1,2.3,2.5,2.7l-12.3,97.6l0,0.1c-1.4,8.8-3.8,14.7-6.5,19.3c-8.3,12.4-19.9,16-19.9,41.2
			v193.6c0,0,12.7,13.5,49.1,16.1c3.8,0.3,7.8,0.4,12.1,0.4c0.3,0,0.5,0,0.8,0c0.3,0,0.5,0,0.8,0c4.3,0,8.3-0.1,12.1-0.4
			c36.4-2.5,49.1-16.1,49.1-16.1V702.5C-1819.7,677.3-1831.2,673.7-1839.6,661.3z M-1833.1,862.7c-32,6-64.9,6-96.9,0V721.2
			c0,0,0,0,0,0v-19.6c0-12.1,2.9-15.8,8.9-22.4c2.4-2.6,5.1-5.6,7.6-9.3l0.4-0.7c3.7-6.4,6.1-13.4,7.5-22l0.1-0.3
			c0.5-3,3.3-5,6.3-4.5c3,0.5,5,3.3,4.5,6.3l-0.1,0.3c-1.6,10-4.5,18.2-8.9,25.8l-0.3,0.5c-0.1,0.1-0.1,0.2-0.2,0.3l-0.3,0.5
			c-3,4.5-6.1,7.9-8.6,10.6c-5,5.5-6,6.6-6,15V723c28.5,4.1,57.6,3.5,86-1.8V862.7z"/>
		<g id="Shadow_9_">
			<linearGradient id="SVGID_7_" gradientUnits="userSpaceOnUse" x1="-1881.5966" y1="926.8332" x2="-1881.5966" y2="926.8254">
				<stop  offset="5.000000e-02" style="stop-color:#FFFFFF"/>
				<stop  offset="0.95" style="stop-color:#CDCCCC"/>
			</linearGradient>
			<path class="st9" d="M-1880.8,926.8h-1.6c0.3,0,0.5,0,0.8,0C-1881.3,926.8-1881.1,926.8-1880.8,926.8z"/>
			<linearGradient id="SVGID_8_" gradientUnits="userSpaceOnUse" x1="-1891.8466" y1="1025.6989" x2="-1891.8466" y2="926.3654">
				<stop  offset="5.000000e-02" style="stop-color:#FFFFFF"/>
				<stop  offset="0.95" style="stop-color:#CDCCCC"/>
			</linearGradient>
			<path class="st10" d="M-1885.3,983.2v12.1c-0.2,3.2-1.8,6.2-4.2,8.5c-1.4,1.3-3.1,2.1-5,2.1s-3.7-0.7-5-2.1c-1-1-1.5-2.3-1.5-3.7
				c0-1.4,0.5-2.7,1.5-3.7c1.4-1.4,3.8-1.4,5.2,0c0.7,0.7,0.9,1.9,0.5,2.8c-0.5,1.2,0,2.6,1.2,3.1c1.2,0.5,2.6,0,3.1-1.2
				c1.2-2.7,0.6-6-1.5-8.1c-3.3-3.3-8.6-3.3-11.9,0c-1.9,1.9-2.9,4.4-2.9,7.1c0,2.7,1,5.2,2.9,7.1c2.2,2.2,5.2,3.5,8.3,3.5
				c3.2,0,6.1-1.2,8.3-3.5c0.3-0.3,0.6-0.7,0.9-1v9.6c0,0,0.5-0.3,3.7-0.3c3.3,0,3.7,0.3,3.7,0.3v-32.5H-1885.3z"/>
			<linearGradient id="SVGID_9_" gradientUnits="userSpaceOnUse" x1="-1895.4828" y1="1025.6989" x2="-1895.4828" y2="926.3648">
				<stop  offset="5.000000e-02" style="stop-color:#FFFFFF"/>
				<stop  offset="0.95" style="stop-color:#CDCCCC"/>
			</linearGradient>
			<path class="st11" d="M-1907,1026h22.3c0.4-2.1,0.7-4.3,0.7-6.7C-1892.7,1019.7-1900.7,1022.2-1907,1026z"/>
			<linearGradient id="SVGID_10_" gradientUnits="userSpaceOnUse" x1="-1867.7094" y1="1025.6989" x2="-1867.7094" y2="926.3648">
				<stop  offset="5.000000e-02" style="stop-color:#FFFFFF"/>
				<stop  offset="0.95" style="stop-color:#CDCCCC"/>
			</linearGradient>
			<path class="st12" d="M-1878.5,1026h22.3c-6.3-3.9-14.3-6.3-23-6.7C-1879.2,1021.7-1878.9,1024-1878.5,1026z"/>
			<linearGradient id="SVGID_11_" gradientUnits="userSpaceOnUse" x1="-1881.5961" y1="1025.699" x2="-1881.5961" y2="926.365">
				<stop  offset="5.000000e-02" style="stop-color:#FFFFFF"/>
				<stop  offset="0.95" style="stop-color:#CDCCCC"/>
			</linearGradient>
			<path class="st13" d="M-1868.7,927.2c-3.8-0.3-7.8-0.4-12.1-0.4c-0.3,0-0.5,0-0.8,0c-0.3,0-0.5,0-0.8,0c-4.3,0-8.3,0.1-12.1,0.4
				c-36.4,2.5-49.1,16.1-49.1,16.1v82.7h13.4v-49.2c32-6,64.9-6,96.9,0v49.2h13.4v-82.7C-1819.7,943.3-1832.4,929.8-1868.7,927.2z"
				/>
		</g>
	</g>
	<g id="BEER_GLASS">
		<path id="beer" class="st2" d="M-2265.7,789.7c22.2-17.3,43-41.9,43-74.4c0-0.9,0-1.8,0-2.7c0-0.1,0-0.2,0-0.3
			c-0.1-5.6-0.4-10.5-1-14.9c0,0,0,0,0,0c0,0,0,0,0-0.1c0-0.2-0.1-0.5-0.1-0.7c-0.1-0.5-0.1-1-0.2-1.5c-0.1-0.5-0.2-1.1-0.2-1.6
			c0-0.2-0.1-0.4-0.1-0.6c-0.1-0.6-0.2-1.1-0.3-1.7c0-0.1,0-0.3-0.1-0.4c-0.1-0.6-0.2-1.1-0.3-1.7c0-0.1-0.1-0.2-0.1-0.4
			c-0.1-0.5-0.2-1.1-0.3-1.6c0-0.1-0.1-0.3-0.1-0.4c-0.1-0.5-0.2-1-0.4-1.5c0-0.2-0.1-0.3-0.1-0.5c-0.1-0.5-0.2-0.9-0.3-1.4
			c-0.1-0.2-0.1-0.5-0.2-0.7c-0.1-0.4-0.2-0.7-0.3-1.1c-0.2-0.6-0.3-1.2-0.5-1.8c0,0,0,0,0,0c-0.2-0.6-0.4-1.2-0.6-1.8
			c0,0,0-0.1,0-0.1c-0.2-0.6-0.4-1.1-0.6-1.7c0,0,0-0.1,0-0.1c-0.2-0.6-0.4-1.1-0.6-1.7c0,0,0-0.1,0-0.1c-0.2-0.5-0.4-1.1-0.6-1.6
			c0-0.1,0-0.1-0.1-0.2c-0.2-0.5-0.4-1-0.6-1.5c-0.1-0.3-0.2-0.6-0.3-0.9c-0.1-0.3-0.2-0.5-0.3-0.8c0,0,0,0,0,0
			c-0.5-1.3-1-2.5-1.5-3.8c-1.3-3.2-2.6-6.6-3.8-10.3c-1.1-3.3-2.2-6.9-3.2-10.7h-77.8c-0.9,3.8-2,7.3-3.2,10.7
			c-1.3,3.6-2.6,7-3.8,10.3c-0.5,1.3-1,2.5-1.5,3.8c0,0,0,0,0,0c-0.1,0.3-0.2,0.5-0.3,0.8c-0.1,0.3-0.2,0.6-0.3,0.9
			c-0.2,0.5-0.4,1-0.6,1.5c0,0.1,0,0.1-0.1,0.2c-0.2,0.5-0.4,1.1-0.6,1.6c0,0,0,0.1,0,0.1c-0.2,0.5-0.4,1.1-0.6,1.7c0,0,0,0.1,0,0.1
			c-0.2,0.6-0.4,1.1-0.6,1.7c0,0,0,0.1,0,0.1c-0.2,0.6-0.4,1.2-0.6,1.8c0,0,0,0,0,0c-0.2,0.6-0.4,1.2-0.5,1.8
			c-0.1,0.4-0.2,0.7-0.3,1.1c-0.1,0.2-0.1,0.5-0.2,0.7c-0.1,0.5-0.2,0.9-0.3,1.4c0,0.2-0.1,0.3-0.1,0.5c-0.1,0.5-0.2,1-0.4,1.5
			c0,0.1-0.1,0.3-0.1,0.4c-0.1,0.5-0.2,1.1-0.3,1.6c0,0.1-0.1,0.2-0.1,0.4c-0.1,0.5-0.2,1.1-0.3,1.7c0,0.1,0,0.3-0.1,0.4
			c-0.1,0.6-0.2,1.1-0.3,1.7c0,0.2-0.1,0.4-0.1,0.6c-0.1,0.5-0.2,1-0.2,1.6c-0.1,0.5-0.1,1-0.2,1.5c0,0.2-0.1,0.5-0.1,0.7
			c0,0,0,0,0,0.1c0,0,0,0,0,0c-0.6,4.4-0.9,9.3-1,14.9c0,0.1,0,0.2,0,0.3c0,0.9,0,1.8,0,2.7c0,32.4,20.8,57,43,74.4
			c2.6,2,6.4,4.9,12.7,4.9C-2272.1,794.7-2268.3,791.7-2265.7,789.7z M-2284.1,771.1c-1.2,1.3-2.8,2-4.5,2c-1.5,0-2.9-0.5-4.1-1.6
			c-19-17.2-28.6-36-28.6-55.7c0-0.8,0-1.6,0-2.4l0-0.3c0.1-4.9,0.3-9.2,0.8-12.9c0,0,0-0.1,0-0.1l0-0.2c0-0.1,0-0.2,0-0.2l0.1-0.5
			c0.1-0.5,0.1-0.8,0.2-1.2c0.1-0.4,0.1-0.9,0.2-1.3l0.1-0.5c0.1-0.5,0.2-1,0.3-1.5l0.1-0.3c0.1-0.5,0.2-1,0.3-1.5l0.1-0.3
			c0.1-0.5,0.2-0.9,0.3-1.4l0.1-0.3c0.1-0.4,0.2-0.9,0.3-1.3l0.1-0.4c0.1-0.4,0.2-0.8,0.3-1.2l0.4-1.4c0.2-0.6,0.3-1.1,0.4-1.5
			l0.1-0.2c0.1-0.5,0.3-1,0.5-1.5l0.1-0.2c0.1-0.4,0.3-0.9,0.5-1.4l0.1-0.2c0.1-0.4,0.3-0.9,0.5-1.4l0.1-0.1
			c0.2-0.5,0.3-0.9,0.5-1.4l1.1-3c0.5-1.2,0.9-2.3,1.4-3.5c1.2-3.1,4.7-4.7,7.8-3.5c3.1,1.2,4.7,4.7,3.5,7.8
			c-0.5,1.2-0.9,2.3-1.3,3.5l-1.1,2.9c-0.2,0.4-0.3,0.8-0.5,1.3l-0.1,0.1c-0.1,0.4-0.3,0.8-0.4,1.2l-0.1,0.2
			c-0.1,0.4-0.3,0.8-0.4,1.2l-0.1,0.2c-0.1,0.4-0.3,0.9-0.4,1.3l0,0.2c-0.1,0.4-0.2,0.8-0.4,1.3l-0.4,1.3c-0.1,0.3-0.2,0.6-0.2,0.9
			l-0.1,0.4c-0.1,0.3-0.2,0.7-0.2,1.1l-0.1,0.3c-0.1,0.4-0.2,0.8-0.2,1.2l-0.1,0.3c-0.1,0.4-0.2,0.8-0.2,1.2l-0.1,0.3
			c-0.1,0.4-0.1,0.8-0.2,1.2l-0.1,0.5c-0.1,0.4-0.1,0.8-0.2,1.2c0,0.3-0.1,0.6-0.1,0.9c0,0,0,0.1,0,0.1l0,0.3c0,0.1,0,0.3,0,0.4
			l-0.1,0.4c-0.4,3.3-0.7,7.1-0.7,11.6l0,0.3c0,0.7,0,1.4,0,2.2c0,16.2,8.3,31.9,24.6,46.8C-2282,764.8-2281.8,768.6-2284.1,771.1z"
			/>
		<path id="glass" class="st2" d="M-2217.2,889.9l-53.7-18.4v-15.2v-13.9c0.4-7.1,3.5-10.8,4.2-12.1c0.2-0.3,0.4-0.6,0.6-1
			c0-0.1,0.1-0.1,0.1-0.2c0.2-0.3,0.5-0.7,0.7-1c0,0,0.1-0.1,0.1-0.1c0.1-0.2,0.2-0.3,0.4-0.5c3.3-4.6,8.4-9.8,14.3-15.6
			c1.1-1.1,2.2-2.1,3.3-3.2c21.5-21,51-49.7,51-93.3c0-1,0-2.1,0-3.1c-0.1-6.8-0.5-12.8-1.2-18.2c0,0,0,0,0,0c0,0,0,0,0,0
			c-1.9-15.7-5.9-26.7-9.6-36.2c-0.2-0.6-0.5-1.3-0.7-1.9c-3.2-8.2-6-15.3-7.3-24.6c-0.3-2.5-0.5-5.2-0.7-8v-29.1
			c0-4.2-3.4-7.5-7.6-7.5l0,0h-110l0,0c-4.2,0-7.6,3.4-7.6,7.5v29.1c-0.2,2.8-0.5,5.4-0.7,8c-1.4,9.3-4.1,16.4-7.3,24.6
			c-0.2,0.6-0.5,1.3-0.7,1.9c-3.7,9.5-7.7,20.5-9.6,36.2c0,0,0,0,0,0c0,0,0,0,0,0c-0.7,5.4-1.1,11.4-1.2,18.2c0,1,0,2,0,3.1
			c0,43.6,29.5,72.3,51,93.3c1.1,1.1,2.2,2.2,3.3,3.2c5.9,5.8,11,11,14.3,15.6c0.1,0.2,0.3,0.3,0.4,0.5c0,0,0.1,0.1,0.1,0.1
			c0.2,0.4,0.5,0.7,0.7,1c0,0.1,0.1,0.1,0.1,0.2c0.2,0.3,0.4,0.6,0.6,1c0.7,1.3,3.9,5,4.2,12.1v13.9v15.2l-53.7,18.4
			c-3.1,1.1-5.1,3.9-5.1,7.2c0,3.2,2.1,6.1,5.2,7.1c1.1,0.3,26.7,8.5,61.1,8.5c34.4,0,60-8.1,61.1-8.5c3.1-1,5.2-3.8,5.2-7.1
			C-2212.1,893.9-2214.1,891-2217.2,889.9z M-2299.1,797.9c-20.7-20.2-46.4-45.3-46.4-82.5c0-1,0-1.9,0-2.8
			c0.1-6.2,0.4-11.7,1.1-16.6c1.6-13.1,4.7-22.3,8-30.7c0.1-0.3,0.2-0.6,0.3-0.9c0.4-1,0.8-2,1.1-3c3.3-8.3,6.6-17,8.2-28.1
			c0-0.1,0-0.1,0-0.2c0.3-2.8,0.6-5.9,0.8-9c0-0.2,0-0.4,0-0.5v-21.8h94.9v21.8c0,0.2,0,0.4,0,0.5c0.2,3.1,0.5,6.1,0.8,9
			c0,0.1,0,0.1,0,0.2c1.6,11.1,5,19.7,8.2,28.1c3.8,9.6,7.6,19.5,9.5,34.6c0.6,4.9,1,10.4,1.1,16.6c0,0.9,0,1.8,0,2.8
			c0,37.2-25.7,62.3-46.4,82.5c-5.3,4.7-12.9,8.4-20.7,8.4C-2286.3,806.2-2293.9,802.6-2299.1,797.9z M-2278.4,897.6
			c-10.1,0-20.3-0.8-30.7-2.3l30.7-10.5l30.7,10.5C-2258.1,896.8-2268.4,897.6-2278.4,897.6z"/>
		<g id="Shadow_8_">
			<linearGradient id="SVGID_12_" gradientUnits="userSpaceOnUse" x1="-2278.4468" y1="1025.699" x2="-2278.4468" y2="926.365">
				<stop  offset="5.000000e-02" style="stop-color:#FFFFFF"/>
				<stop  offset="0.95" style="stop-color:#CDCCCC"/>
			</linearGradient>
			<path class="st14" d="M-2264.8,1012c-0.1-0.2-0.3-0.3-0.4-0.5c0,0-0.1-0.1-0.1-0.1c-0.2-0.4-0.5-0.7-0.7-1c0-0.1-0.1-0.1-0.1-0.2
				c-0.2-0.3-0.4-0.6-0.6-1c-0.7-1.3-3.9-4.9-4.2-12.1v-13.9V968l53.7-18.4c3.1-1.1,5.1-3.9,5.1-7.2c0-3.2-2.1-6.1-5.2-7.1
				c-1.1-0.3-26.7-8.5-61.1-8.5c-34.4,0-60,8.1-61.1,8.5c-3.1,1-5.2,3.8-5.2,7.1c0,3.2,2,6.1,5.1,7.2l53.7,18.4v15.2V997
				c-0.4,7.1-3.5,10.8-4.2,12.1c-0.2,0.3-0.4,0.6-0.6,1c0,0.1-0.1,0.1-0.1,0.2c-0.2,0.3-0.5,0.7-0.7,1c0,0-0.1,0.1-0.1,0.1
				c-0.1,0.2-0.2,0.3-0.4,0.5c-3,4.2-7.5,8.9-12.7,14.1h52.7C-2257.3,1020.9-2261.8,1016.2-2264.8,1012z M-2309.1,944.1
				c10.3-1.5,20.6-2.3,30.7-2.3c10.1,0,20.3,0.8,30.7,2.3l-30.7,10.5L-2309.1,944.1z"/>
		</g>
	</g>
	<g id="BEER_BOTTLE_2">
		<path id="bottle" class="st2" d="M-1442.7,94.4c-2.7-4.7-5.1-10.6-6.5-19.3l0-0.1l-12.3-97.6c1.5-0.5,2.5-1.5,2.5-2.7l-1.4-6.3
			c0,0-1.1-6.3-2.9-11.2c0.5,0.5,1.3,1.2,2.6,1.2c1.4,0,0.8-4,0.8-4c0-3-2.5-5.4-5.7-5.4h-2.1h-34.1h-2.1c-3.1,0-5.7,2.4-5.7,5.4
			v3.1c-0.1,0.5,0.1,0.9,0.7,0.9c1.3,0,2.1-0.7,2.6-1.2c0,0,0.1,0,0.1-0.1c0,0,0,0,0,0c-1.8,4.9-3,11.3-3,11.3l-1.4,6.3
			c0,1.2,1,2.3,2.5,2.7l-12.3,97.6l0,0.1c-1.4,8.8-3.8,14.7-6.5,19.3c-8.3,12.4-19.9,16-19.9,41.2v193.6c0,0,12.7,13.5,49.1,16.1
			c3.8,0.3,7.8,0.4,12.1,0.4c0.3,0,0.5,0,0.8,0c0.3,0,0.5,0,0.8,0c4.3,0,8.3-0.1,12.1-0.4c36.4-2.5,49.1-16.1,49.1-16.1V135.6
			C-1422.8,110.4-1434.4,106.8-1442.7,94.4z M-1436.3,295.7c-32,6-64.9,6-96.9,0V154.2c0,0,0,0,0,0v-19.6c0-12.1,2.9-15.8,8.9-22.4
			c2.4-2.6,5.1-5.6,7.6-9.3l0.4-0.7c3.7-6.4,6.1-13.4,7.5-22l0.1-0.3c0.5-3,3.3-5,6.3-4.5c3,0.5,5,3.3,4.5,6.3l-0.1,0.3
			c-1.6,10-4.5,18.2-8.9,25.8l-0.3,0.5c-0.1,0.1-0.1,0.2-0.2,0.3l-0.3,0.5c-3,4.5-6.1,7.9-8.6,10.6c-5,5.5-6,6.6-6,15V156
			c28.5,4.1,57.6,3.5,86-1.8V295.7z"/>
		<g id="Shadow_6_">
			<linearGradient id="SVGID_13_" gradientUnits="userSpaceOnUse" x1="-1484.7455" y1="359.9035" x2="-1484.7455" y2="359.8957">
				<stop  offset="5.000000e-02" style="stop-color:#FFFFFF"/>
				<stop  offset="0.95" style="stop-color:#CDCCCC"/>
			</linearGradient>
			<path class="st15" d="M-1484,359.9h-1.6c0.3,0,0.5,0,0.8,0C-1484.5,359.9-1484.2,359.9-1484,359.9z"/>
			<linearGradient id="SVGID_14_" gradientUnits="userSpaceOnUse" x1="-1484.7455" y1="458.7693" x2="-1484.7455" y2="359.4353">
				<stop  offset="5.000000e-02" style="stop-color:#FFFFFF"/>
				<stop  offset="0.95" style="stop-color:#CDCCCC"/>
			</linearGradient>
			<path class="st16" d="M-1471.9,360.3c-3.8-0.3-7.8-0.4-12.1-0.4c-0.3,0-0.5,0-0.8,0c-0.3,0-0.5,0-0.8,0c-4.3,0-8.3,0.1-12.1,0.4
				c-36.4,2.5-49.1,16.1-49.1,16.1v82.7h13.4v-49.2c32-6,64.9-6,96.9,0v49.2h13.4v-82.7C-1422.8,376.4-1435.5,362.8-1471.9,360.3z"
				/>
		</g>
	</g>
	<g id="PINT_GLASS_2">
		<path id="glass_2_" class="st2" d="M-1796.6,94.4c-0.5-18.8-2.4-37-5.8-54.2c-1.4-6.9-7.3-11.9-14.2-11.9h-130
			c-6.9,0-12.8,5-14.2,11.9c-3.4,17.2-5.3,35.5-5.8,54.2c-0.9,34.8,13.4,78,23.8,109.6c1.6,4.9,3.5,23.7,3.4,60.6
			c-0.1,29.2-1.3,54.3-2.1,60.5c-1,7.7,4,14.9,11.5,16.4c7.9,1.6,24.6,4.3,47.7,4.4l0.6,0c0,0,0,0,0,0c0,0,0,0,0,0l0.6,0
			c23.1-0.1,39.8-2.8,47.7-4.4c7.5-1.5,12.5-8.7,11.5-16.4c-0.8-6.2-2-31.3-2.1-60.5c-0.1-36.8,1.8-55.6,3.4-60.6
			C-1810,172.4-1795.7,129.2-1796.6,94.4z M-1834.1,199.2c-6.5,19.5-4,112.1-2,127.7c-7.4,1.5-23.1,4-44.9,4.1l-0.6,0l-0.6,0
			c-21.9-0.1-37.6-2.6-44.9-4.1c2-15.6,4.5-108.2-2-127.7c-10.2-30.9-23.9-72.2-23.1-104.4c0.5-18,2.3-35.4,5.5-51.7h130
			c3.2,16.4,5.1,33.7,5.5,51.7C-1810.2,126.9-1823.9,168.2-1834.1,199.2z"/>
		<path id="beer_1_" class="st2" d="M-1822,96h-95.1c0,1.5,0,2.8,0,3.7c-0.6,22,6.8,44.2,14.5,67.6l0.1,0.2c0.9,2.8-0.5,5.8-3.2,6.8
			c-0.6,0.2-1.1,0.3-1.7,0.3c-2.1,0-4.1-1.4-4.9-3.6l-0.1-0.2c-8.1-24.4-15.7-47.4-15.1-71.4c0-0.8,0-2,0-3.4h-13.7
			c-0.5,30,12.8,70.1,22.5,99.4c6.5,19.6,5,91.2,3.4,120.9l-0.1,0.9l0.9,0.1c10.1,1.4,21,2.1,32.3,2.1l0.5,0l0.5,0
			c11.3,0,22.2-0.8,32.3-2.1l0.9-0.1l-0.1-0.9c-1.6-29.7-3.1-101.3,3.4-120.9C-1834.8,166.1-1821.6,126.1-1822,96z"/>
		<g id="Shadow_5_">
			<linearGradient id="SVGID_15_" gradientUnits="userSpaceOnUse" x1="-1881.5959" y1="458.7693" x2="-1881.5959" y2="359.4353">
				<stop  offset="5.000000e-02" style="stop-color:#FFFFFF"/>
				<stop  offset="0.95" style="stop-color:#CDCCCC"/>
			</linearGradient>
			<path class="st17" d="M-1823.8,441.1c0.1-29.2,1.3-54.3,2.1-60.5c1-7.7-4-14.9-11.5-16.4c-7.9-1.6-24.6-4.3-47.7-4.4l-0.6,0h0h0
				l-0.6,0c-23.1,0.1-39.8,2.8-47.7,4.4c-7.5,1.5-12.5,8.7-11.5,16.4c0.8,6.2,2,31.3,2.1,60.5c0,6.6,0,12.5-0.1,18h14.5
				c0.6-32.7-0.8-70.8-2.1-80.4c7.4-1.5,23.1-4,44.9-4.1l0.6,0l0.6,0c21.9,0.1,37.6,2.6,44.9,4.1c-1.2,9.5-2.6,47.6-2.1,80.4h14.5
				C-1823.8,453.7-1823.8,447.7-1823.8,441.1z"/>
			<linearGradient id="SVGID_16_" gradientUnits="userSpaceOnUse" x1="-1881.5953" y1="458.7692" x2="-1881.5953" y2="359.4354">
				<stop  offset="5.000000e-02" style="stop-color:#FFFFFF"/>
				<stop  offset="0.95" style="stop-color:#CDCCCC"/>
			</linearGradient>
			<path class="st18" d="M-1847.9,389.3l0.1-0.9l-0.9-0.1c-10.1-1.4-21-2.1-32.3-2.1l-0.5,0l-0.5,0c-11.4,0-22.2,0.8-32.3,2.1
				l-0.9,0.1l0.1,0.9c0.9,16,1.7,44.2,1.3,69.8h64.8C-1849.6,433.5-1848.8,405.3-1847.9,389.3z"/>
		</g>
	</g>
	<g id="WHEAT">
		<g id="wheat_1_">
			<path class="st2" d="M-2402,115l-5-13.6c-0.9-2.4-3.5-3.6-5.8-2.7c-2.4,0.9-3.6,3.5-2.7,5.8l5,13.6c-3.3,4.7-5.2,13.5-2.2,21.8
				c4,11.1,15.5,17.2,20.5,15.3c5-1.8,9.9-13.8,5.9-24.9C-2389.4,121.9-2396.5,116.5-2402,115z"/>
			<g>
				<g>
					<path class="st2" d="M-2412.8,184.7c10.7,5,23.1,1.2,25.4-3.7c2.3-4.9-2.8-16.8-13.5-21.8c-6.9-3.2-14.6-2.8-19.7-0.7l-16.8-46
						c-0.9-2.4-3.5-3.6-5.8-2.7c-2.4,0.9-3.6,3.5-2.7,5.8l19.5,53.5c0.1,0.2,0.1,0.3,0.2,0.5
						C-2424.5,174.9-2419.9,181.3-2412.8,184.7z"/>
					<path class="st2" d="M-2414.3,195.5c-2.3,4.9,2.8,16.8,13.5,21.8c10.7,5,23.1,1.2,25.4-3.7c2.3-4.9-2.8-16.8-13.5-21.8
						C-2399.7,186.8-2412.1,190.7-2414.3,195.5z"/>
					<path class="st2" d="M-2384.4,256.2c-3.1,1.1-5.4,2.8-6.2,4.6c-2.3,4.9,2.7,16.8,13.5,21.8c6.7,3.1,14,2.8,19.2,0.9
						c3.1-1.1,5.4-2.8,6.2-4.6c2.3-4.9-2.7-16.8-13.5-21.8C-2371.9,254.1-2379.2,254.4-2384.4,256.2z"/>
					<path class="st2" d="M-2402.5,228.2c-2.3,4.9,2.8,16.8,13.5,21.8c10.7,5,23.1,1.2,25.4-3.7c2.3-4.9-2.8-16.8-13.5-21.8
						C-2387.8,219.5-2400.2,223.3-2402.5,228.2z"/>
				</g>
				<g>
					<path class="st2" d="M-2371.2,185.4c-5,10.7-1.2,23.1,3.7,25.4c4.9,2.3,16.8-2.8,21.8-13.5c5-10.7,1.2-23.1-3.7-25.4
						C-2354.3,169.6-2366.2,174.6-2371.2,185.4z"/>
					<path class="st2" d="M-2351.1,290.4l20.1,55.3l14.2-5.2l-20.1-55.3c-2.9,0.6-5.6,0.5-8.1-0.1
						C-2346.4,287.2-2348.5,289-2351.1,290.4z"/>
					<path class="st2" d="M-2333.4,237.7c-5.1,1.9-10.9,6.3-14.1,13c-5,10.7-1.2,23.1,3.7,25.4c1.8,0.9,4.7,0.7,7.7-0.4
						c5.1-1.9,10.9-6.3,14.1-13c5-10.7,1.2-23.1-3.7-25.4C-2327.4,236.4-2330.3,236.5-2333.4,237.7z"/>
					<path class="st2" d="M-2359.3,218c-5,10.7-1.2,23.1,3.7,25.4c4.9,2.3,16.8-2.8,21.8-13.5c5-10.7,1.2-23.1-3.7-25.4
						C-2342.4,202.3-2354.3,207.3-2359.3,218z"/>
					<path class="st2" d="M-2377.3,88.7c-0.9-2.4-3.5-3.6-5.8-2.7c-2.4,0.9-3.6,3.5-2.7,5.8l17.3,47.6c-5.2,1.7-11.4,6.3-14.6,13.2
						c-5,10.7-1.2,23.1,3.7,25.4c4.9,2.3,16.8-2.8,21.8-13.5c3.3-7.2,2.7-15,0.5-20.2c0-0.2-0.1-0.3-0.2-0.5L-2377.3,88.7z"/>
				</g>
			</g>
		</g>
		<g id="wheat_3_">
			<path class="st2" d="M-2154.8,115l5-13.6c0.9-2.4,3.5-3.6,5.8-2.7c2.4,0.9,3.6,3.5,2.7,5.8l-5,13.6c3.3,4.7,5.2,13.5,2.2,21.8
				c-4,11.1-15.5,17.2-20.5,15.3c-5-1.8-9.9-13.8-5.9-24.9C-2167.5,121.9-2160.4,116.5-2154.8,115z"/>
			<g>
				<g>
					<path class="st2" d="M-2144.1,184.7c-10.7,5-23.1,1.2-25.4-3.7c-2.3-4.9,2.8-16.8,13.5-21.8c6.9-3.2,14.6-2.8,19.7-0.7l16.8-46
						c0.9-2.4,3.5-3.6,5.8-2.7c2.4,0.9,3.6,3.5,2.7,5.8l-19.5,53.5c-0.1,0.2-0.1,0.3-0.2,0.5C-2132.4,174.9-2137,181.3-2144.1,184.7
						z"/>
					<path class="st2" d="M-2142.5,195.5c2.3,4.9-2.7,16.8-13.5,21.8c-10.7,5-23.1,1.2-25.4-3.7c-2.3-4.9,2.8-16.8,13.5-21.8
						C-2157.2,186.8-2144.8,190.7-2142.5,195.5z"/>
					<path class="st2" d="M-2172.5,256.2c3.1,1.1,5.4,2.8,6.2,4.6c2.3,4.9-2.8,16.8-13.5,21.8c-6.7,3.1-14,2.8-19.2,0.9
						c-3.1-1.1-5.4-2.8-6.2-4.6c-2.3-4.9,2.7-16.8,13.5-21.8C-2185,254.1-2177.7,254.4-2172.5,256.2z"/>
					<path class="st2" d="M-2154.4,228.2c2.3,4.9-2.8,16.8-13.5,21.8c-10.7,5-23.1,1.2-25.4-3.7c-2.3-4.9,2.8-16.8,13.5-21.8
						C-2169.1,219.5-2156.7,223.3-2154.4,228.2z"/>
				</g>
				<g>
					<path class="st2" d="M-2185.7,185.4c5,10.7,1.2,23.1-3.7,25.4c-4.9,2.3-16.8-2.8-21.8-13.5c-5-10.7-1.2-23.1,3.7-25.4
						C-2202.6,169.6-2190.7,174.6-2185.7,185.4z"/>
					<path class="st2" d="M-2205.8,290.4l-20.1,55.3l-14.2-5.2l20.1-55.3c2.9,0.6,5.6,0.5,8.1-0.1
						C-2210.5,287.2-2208.4,289-2205.8,290.4z"/>
					<path class="st2" d="M-2223.5,237.7c5.1,1.9,10.9,6.3,14.1,13c5,10.7,1.2,23.1-3.7,25.4c-1.8,0.9-4.7,0.7-7.7-0.4
						c-5.1-1.9-10.9-6.3-14.1-13c-5-10.7-1.2-23.1,3.7-25.4C-2229.5,236.4-2226.6,236.5-2223.5,237.7z"/>
					<path class="st2" d="M-2197.6,218c5,10.7,1.2,23.1-3.7,25.4c-4.9,2.3-16.8-2.8-21.8-13.5c-5-10.7-1.2-23.1,3.7-25.4
						C-2214.5,202.3-2202.6,207.3-2197.6,218z"/>
					<path class="st2" d="M-2179.6,88.7c0.9-2.4,3.5-3.6,5.8-2.7c2.4,0.9,3.6,3.5,2.7,5.8l-17.3,47.6c5.2,1.7,11.4,6.3,14.6,13.2
						c5,10.7,1.2,23.1-3.7,25.4c-4.9,2.3-16.8-2.8-21.8-13.5c-3.3-7.2-2.7-15-0.5-20.2c0-0.2,0.1-0.3,0.2-0.5L-2179.6,88.7z"/>
				</g>
			</g>
		</g>
		<g id="wheat">
			<path class="st2" d="M-2273.9,49V34.5c0-2.5-2-4.5-4.5-4.5c-2.5,0-4.5,2-4.5,4.5V49c-4.7,3.3-9.5,10.9-9.5,19.7
				c0,11.8,8.7,21.4,14.1,21.4c5.4,0,14.1-9.6,14.1-21.4C-2264.4,59.9-2269.2,52.3-2273.9,49z"/>
			<g>
				<g>
					<path class="st2" d="M-2307.8,110.8c8.4,8.4,21.3,9,25.1,5.2c3.8-3.8,3.2-16.7-5.2-25.1c-5.4-5.4-12.7-7.6-18.3-7.4v-49
						c0-2.5-2-4.5-4.5-4.5c-2.5,0-4.5,2-4.5,4.5v57c0,0.2,0,0.4,0,0.5C-2315.5,97.6-2313.4,105.2-2307.8,110.8z"/>
					<path class="st2" d="M-2313,120.5c-3.8,3.8-3.2,16.7,5.2,25.1c8.4,8.4,21.3,9,25.1,5.2c3.8-3.8,3.2-16.7-5.2-25.1
						C-2296.3,117.3-2309.2,116.7-2313,120.5z"/>
					<path class="st2" d="M-2305.6,187.8c-3.3,0-6,0.8-7.4,2.2c-3.8,3.8-3.2,16.7,5.2,25.1c5.2,5.2,12.2,7.4,17.7,7.4
						c3.3,0,6-0.8,7.4-2.2c3.8-3.8,3.2-16.7-5.2-25.1C-2293.1,190-2300.1,187.8-2305.6,187.8z"/>
					<path class="st2" d="M-2313,155.2c-3.8,3.8-3.2,16.7,5.2,25.1c8.4,8.4,21.3,9,25.1,5.2c3.8-3.8,3.2-16.7-5.2-25.1
						C-2296.3,152.1-2309.2,151.4-2313,155.2z"/>
				</g>
				<g>
					<path class="st2" d="M-2269,125.7c-8.4,8.4-9,21.3-5.2,25.1c3.8,3.8,16.7,3.2,25.1-5.2c8.4-8.4,9-21.3,5.2-25.1
						C-2247.7,116.7-2260.6,117.3-2269,125.7z"/>
					<path class="st2" d="M-2251.3,187.8c-5.4,0-12.5,2.2-17.7,7.4c-8.4,8.4-9,21.3-5.2,25.1c1.4,1.4,4.1,2.2,7.4,2.2
						c5.4,0,12.5-2.2,17.7-7.4c8.4-8.4,9-21.3,5.2-25.1C-2245.3,188.6-2248,187.8-2251.3,187.8z"/>
					<path class="st2" d="M-2269,160.4c-8.4,8.4-9,21.3-5.2,25.1c3.8,3.8,16.7,3.2,25.1-5.2c8.4-8.4,9-21.3,5.2-25.1
						C-2247.7,151.4-2260.6,152.1-2269,160.4z"/>
					<path class="st2" d="M-2241.7,32.8c0-2.5-2-4.5-4.5-4.5c-2.5,0-4.5,2-4.5,4.5v50.7c-5.5-0.2-12.8,2-18.3,7.4
						c-8.4,8.4-9,21.3-5.2,25.1c3.8,3.8,16.7,3.2,25.1-5.2c5.6-5.6,7.7-13.2,7.4-18.8c0-0.2,0-0.4,0-0.5V32.8z"/>
				</g>
				<path class="st2" d="M-2278.4,228.4c-2.1,1.4-4.7,2.4-7.6,2.8v41.5v17.4v41.5h15.1v-41.5v-17.4v-41.5
					C-2273.8,230.8-2276.3,229.8-2278.4,228.4z"/>
			</g>
		</g>
		<g id="Shadow_4_">
			<linearGradient id="SVGID_17_" gradientUnits="userSpaceOnUse" x1="-2371.1448" y1="458.7689" x2="-2371.1448" y2="359.4368">
				<stop  offset="5.000000e-02" style="stop-color:#FFFFFF"/>
				<stop  offset="0.95" style="stop-color:#CDCCCC"/>
			</linearGradient>
			<path class="st19" d="M-2357.9,422c-5.1-1.9-12.5-2.2-19.2,0.9c-10.7,5-15.7,16.9-13.5,21.8c0.9,1.8,3.1,3.5,6.2,4.6
				c5.1,1.9,12.5,2.2,19.2-0.9c10.7-5,15.7-16.9,13.5-21.8C-2352.6,424.8-2354.9,423.1-2357.9,422z"/>
			<linearGradient id="SVGID_18_" gradientUnits="userSpaceOnUse" x1="-2379.0847" y1="458.7692" x2="-2379.0847" y2="359.4402">
				<stop  offset="5.000000e-02" style="stop-color:#FFFFFF"/>
				<stop  offset="0.95" style="stop-color:#CDCCCC"/>
			</linearGradient>
			<path class="st20" d="M-2389,455.6c-2,0.9-3.9,2.1-5.5,3.5h30.7C-2366.2,454.3-2378.4,450.7-2389,455.6z"/>
			<linearGradient id="SVGID_19_" gradientUnits="userSpaceOnUse" x1="-2333.906" y1="458.7692" x2="-2333.906" y2="359.4357">
				<stop  offset="5.000000e-02" style="stop-color:#FFFFFF"/>
				<stop  offset="0.95" style="stop-color:#CDCCCC"/>
			</linearGradient>
			<path class="st21" d="M-2344.9,420.4c2.5-0.6,5.2-0.6,8.1-0.1l20.1-55.3l-14.2-5.2l-20.1,55.3
				C-2348.5,416.6-2346.4,418.4-2344.9,420.4z"/>
			<linearGradient id="SVGID_20_" gradientUnits="userSpaceOnUse" x1="-2334.668" y1="458.7692" x2="-2334.668" y2="359.4348">
				<stop  offset="5.000000e-02" style="stop-color:#FFFFFF"/>
				<stop  offset="0.95" style="stop-color:#CDCCCC"/>
			</linearGradient>
			<path class="st22" d="M-2321.9,443c-3.1-6.7-8.9-11.2-14.1-13c-3.1-1.1-5.9-1.3-7.7-0.4c-4.9,2.3-8.7,14.6-3.7,25.4
				c0.7,1.5,1.6,2.9,2.5,4.2h24.8C-2319.1,454.3-2319.4,448.5-2321.9,443z"/>
			<linearGradient id="SVGID_21_" gradientUnits="userSpaceOnUse" x1="-2185.7488" y1="458.7689" x2="-2185.7488" y2="359.4368">
				<stop  offset="5.000000e-02" style="stop-color:#FFFFFF"/>
				<stop  offset="0.95" style="stop-color:#CDCCCC"/>
			</linearGradient>
			<path class="st23" d="M-2179.8,422.9c-6.7-3.1-14-2.8-19.2-0.9c-3.1,1.1-5.4,2.8-6.2,4.6c-2.3,4.9,2.7,16.8,13.5,21.8
				c6.7,3.1,14,2.8,19.2,0.9c3.1-1.1,5.4-2.8,6.2-4.6C-2164.1,439.9-2169.1,427.9-2179.8,422.9z"/>
			<linearGradient id="SVGID_22_" gradientUnits="userSpaceOnUse" x1="-2177.8101" y1="458.7692" x2="-2177.8101" y2="359.4402">
				<stop  offset="5.000000e-02" style="stop-color:#FFFFFF"/>
				<stop  offset="0.95" style="stop-color:#CDCCCC"/>
			</linearGradient>
			<path class="st24" d="M-2193.2,459.1h30.7c-1.6-1.3-3.4-2.5-5.5-3.5C-2178.5,450.7-2190.7,454.3-2193.2,459.1z"/>
			<linearGradient id="SVGID_23_" gradientUnits="userSpaceOnUse" x1="-2222.988" y1="458.7692" x2="-2222.988" y2="359.4357">
				<stop  offset="5.000000e-02" style="stop-color:#FFFFFF"/>
				<stop  offset="0.95" style="stop-color:#CDCCCC"/>
			</linearGradient>
			<path class="st25" d="M-2220,420.4c2.9-0.6,5.6-0.5,8.1,0.1c1.5-2,3.6-3.8,6.1-5.2l-20.1-55.3l-14.2,5.2L-2220,420.4z"/>
			<linearGradient id="SVGID_24_" gradientUnits="userSpaceOnUse" x1="-2222.2258" y1="458.7692" x2="-2222.2258" y2="359.4348">
				<stop  offset="5.000000e-02" style="stop-color:#FFFFFF"/>
				<stop  offset="0.95" style="stop-color:#CDCCCC"/>
			</linearGradient>
			<path class="st26" d="M-2213.2,429.6c-1.8-0.9-4.7-0.7-7.7,0.4c-5.1,1.9-10.9,6.3-14.1,13c-2.5,5.5-2.8,11.3-1.8,16.1h24.8
				c0.9-1.3,1.8-2.7,2.5-4.2C-2204.5,444.2-2208.3,431.8-2213.2,429.6z"/>
			<linearGradient id="SVGID_25_" gradientUnits="userSpaceOnUse" x1="-2278.4456" y1="458.7692" x2="-2278.4456" y2="359.4359">
				<stop  offset="5.000000e-02" style="stop-color:#FFFFFF"/>
				<stop  offset="0.95" style="stop-color:#CDCCCC"/>
			</linearGradient>
			<polygon class="st27" points="-2270.9,415.5 -2270.9,374 -2286,374 -2286,415.5 -2286,432.9 -2286,459.1 -2270.9,459.1
				-2270.9,432.9 			"/>
		</g>
	</g>
	<g id="HOPS">
		<path id="bottom" class="st2" d="M-1097.3-303.2v24.2c-0.7-0.9-1.5-1.7-2.3-2.5c-5.6-5.7-13.1-8.8-21-8.8c-7.9,0-15.4,3.1-21,8.8
			c-4.7,4.8-7.3,11.1-7.3,17.8c0,6.7,2.6,13,7.3,17.8c8.2,8.3,21.7,8.3,29.9,0c5.3-5.3,6.8-13.5,3.7-20.4c-1.3-3-4.8-4.4-7.8-3
			c-3,1.4-4.3,4.9-3,7.9c1.1,2.4,0.5,5.2-1.3,7c-3.6,3.7-9.5,3.7-13.1,0c-2.5-2.5-3.8-5.8-3.8-9.3c0-3.5,1.4-6.8,3.8-9.3
			c3.4-3.4,7.9-5.3,12.6-5.3s9.1,2,12.6,5.3c6.1,5.7,10.2,13.3,10.7,21.3v30.5h18.8v-81.9c0,0-1.2,0.8-9.4,0.8
			C-1096.1-302.3-1097.3-303.2-1097.3-303.2z"/>
		<g id="top">
			<path class="st2" d="M-1087.9-413.4c-1.2,0.7-2.3,1.4-3.3,2.2c-16,10.9-21.9,22.8-23.5,32.9v0c4.4,2.7,8.5,5.9,12.3,9.8
				c6.3,6.5,11.1,14.2,14.5,23.2c3.4-9,8.2-16.8,14.5-23.2c3.8-3.9,7.9-7.1,12.3-9.8C-1062.7-389.1-1069.3-402-1087.9-413.4z"/>
			<path class="st2" d="M-1150.7-447.6c0.2,0.1,0.4,0.2,0.6,0.3c6.9,3.5,15.3,9,24.4,17.2c0.1,0.1,0.3,0.2,0.4,0.4
				c0.1-0.1,0.1-0.3,0.2-0.4c5.2-13.8,11.2-23.9,16.8-31.1c0.4-0.5,0.7-0.9,1.1-1.4c-10.5-22.7-22.1-32.2-27.4-35.7
				c-4.8,5-15.5,19.1-20.1,48.9c0,0,0,0,0,0c1,0.4,2,0.9,3,1.4C-1151.3-448-1151-447.8-1150.7-447.6z"/>
			<path class="st2" d="M-1068.7-462.7c5.9,7.3,12.5,17.7,18,32.5c0.1,0.1,0.1,0.3,0.2,0.4c0.1-0.1,0.3-0.2,0.4-0.3
				c11.4-10.2,21.4-16,29.1-19.4c0,0,0,0,0,0c-4.5-30-15.2-43.9-20.1-48.8c-5.3,3.5-16.9,13.2-27.5,35.8
				C-1068.6-462.7-1068.7-462.7-1068.7-462.7z"/>
			<path class="st2" d="M-1087.9-465c-5.5,4.1-18.7,16.4-28,44.4c0,0,0,0,0,0c2.4,2.5,4.8,5.2,7.2,8.1c0,0,0,0,0,0
				c4.7-4.5,10.6-8.9,17.9-13c0.9-0.5,1.9-0.8,2.8-0.8c1,0,2.1,0.2,3,0.8c7.3,4.1,13.2,8.5,17.9,13c0,0,0,0,0,0
				c2.4-2.9,4.8-5.6,7.2-8.1C-1069.2-448.5-1082.3-460.8-1087.9-465z"/>
			<path class="st2" d="M-1169.5-390.6C-1169.5-390.6-1169.5-390.6-1169.5-390.6c0.5,0,1.1,0,1.6,0c0.3,0,0.5,0,0.8,0
				c0.8,0,1.6,0,2.5,0c11.4,0,25.6,1.5,38.9,6.9c1.4-6.2,4.2-12.9,9-19.6c0,0,0,0,0,0c-23.8-28.9-43.4-36.2-51.1-38
				C-1170.4-435.3-1175.2-419-1169.5-390.6C-1169.5-390.6-1169.5-390.6-1169.5-390.6z"/>
			<path class="st2" d="M-1059.1-403.5C-1059.1-403.5-1059.1-403.5-1059.1-403.5c0.6,0.8,1.2,1.6,1.7,2.5c0,0,0,0,0,0
				c2.7,4.1,4.6,8.2,5.9,12.1c0,0.1,0.1,0.2,0.1,0.3c0.2,0.8,0.5,1.5,0.7,2.2c0,0,0,0.1,0,0.1c0.2,0.8,0.4,1.6,0.6,2.4
				c13.4-5.4,27.5-6.9,38.9-6.9c1.7,0,3.3,0,4.9,0.1c5.7-28.3,1-44.5-1.7-50.8C-1015.7-439.5-1035.5-432-1059.1-403.5z"/>
			<path class="st2" d="M-1098.1-472.1c4.2-3.6,7.2-5.1,7.6-5.3l1.2-0.6h2.7l1.3,0.6c0.4,0.2,3.3,1.7,7.6,5.3l0.5,0
				c4.6-9,9.3-16.1,13.8-21.5c-7.8-24.8-19.3-35.6-24.4-39.4c-5,3.8-16.6,14.8-24.4,39.4c4.4,5.5,9.2,12.5,13.7,21.5
				C-1098.4-472.1-1098.2-472.1-1098.1-472.1z"/>
			<path class="st2" d="M-1110.9-360.1c-15-15.4-37.5-18.7-53.8-18.7c-8.8,0-16.4,0.9-21,1.7c3.4,35,42.8,62.9,91.8,65
				C-1094.4-332.9-1100.1-349-1110.9-360.1z"/>
			<path class="st2" d="M-1011.2-378.8c-16.2,0-38.8,3.2-53.8,18.7c-10.8,11.1-16.5,27.2-17,48.1c49-2.1,88.4-30.1,91.8-65
				C-994.7-377.8-1002.3-378.8-1011.2-378.8z"/>
		</g>
		<g id="Shadow_3_">
			<linearGradient id="SVGID_26_" gradientUnits="userSpaceOnUse" x1="-1113.7064" y1="-108.1604" x2="-1113.7064" y2="-207.4937">
				<stop  offset="5.000000e-02" style="stop-color:#FFFFFF"/>
				<stop  offset="0.95" style="stop-color:#CDCCCC"/>
			</linearGradient>
			<path class="st28" d="M-1107.9-155.3c-3.5,3.3-7.9,5.3-12.6,5.3s-9.3-1.9-12.6-5.3c-2.5-2.5-3.8-5.8-3.8-9.3
				c0-3.5,1.4-6.8,3.8-9.3c3.6-3.7,9.5-3.7,13.1,0c1.8,1.8,2.3,4.7,1.3,7c-1.3,3,0,6.5,3,7.9c3,1.4,6.5,0,7.8-3
				c3.1-6.9,1.6-15.1-3.7-20.4c-8.2-8.3-21.7-8.3-29.9,0c-4.7,4.8-7.3,11.1-7.3,17.8c0,6.7,2.6,13,7.3,17.8c5.6,5.7,13.1,8.8,21,8.8
				c7.9,0,15.4-3.1,21-8.8c0.8-0.8,1.5-1.6,2.3-2.5v24.2c0,0,1.2-0.8,9.4-0.8c8.2,0,9.4,0.8,9.4,0.8V-207h-18.8v30.5
				C-1097.7-168.6-1101.8-161-1107.9-155.3z"/>
			<linearGradient id="SVGID_27_" gradientUnits="userSpaceOnUse" x1="-1114.2494" y1="-108.1605" x2="-1114.2494" y2="-207.4944">
				<stop  offset="5.000000e-02" style="stop-color:#FFFFFF"/>
				<stop  offset="0.95" style="stop-color:#CDCCCC"/>
			</linearGradient>
			<path class="st29" d="M-1134.6-107.8h40.3c0.3-2.7,0.5-5.5,0.5-8.4C-1108.6-115.6-1122.4-112.6-1134.6-107.8z"/>
			<linearGradient id="SVGID_28_" gradientUnits="userSpaceOnUse" x1="-1061.5414" y1="-108.1605" x2="-1061.5414" y2="-207.4944">
				<stop  offset="5.000000e-02" style="stop-color:#FFFFFF"/>
				<stop  offset="0.95" style="stop-color:#CDCCCC"/>
			</linearGradient>
			<path class="st30" d="M-1081.4-107.8h40.3c-12.3-4.8-26.1-7.8-40.8-8.4C-1081.9-113.3-1081.7-110.5-1081.4-107.8z"/>
		</g>
	</g>
	<g id="PINT_GLASS_1_1_">
		<path id="glass_3_" class="st2" d="M-1396.3-472.8c-0.5-18.8-2.5-37.1-6-54.3c-1.4-7-7.6-12-14.7-12h-0.4h-134.7h-0.4
			c-7.1,0-13.3,5-14.7,12c-3.5,17.3-5.5,35.5-6,54.3c-0.1,3.3,0,6.7,0.2,10.3c-1.3,42.8,5.2,71.1,11.4,98.5
			c7.3,32,14.3,62.3,6.5,115c-0.9,6.2,2.2,12.4,7.7,15.4c10.8,5.8,37.2,12.2,61.4,12.5c0.2,0,0.4,0,0.5,0l0.5,0c0,0,0,0,0.1,0
			c0,0,0,0,0.1,0l0.1,0l0.1,0c0,0,0,0,0.1,0c0,0,0,0,0.1,0l0.6,0c0.2,0,0.3,0,0.5,0c24.2-0.2,50.7-6.6,61.4-12.5
			c5.5-3,8.6-9.2,7.7-15.4c-7.8-52.7-0.9-82.9,6.5-115c6.3-27.4,12.8-55.7,11.4-98.5C-1396.2-466.1-1396.2-469.6-1396.3-472.8z
			 M-1429.2-246.9c-7.9,4.3-32.1,10.5-54.7,10.7c0,0,0,0-0.1,0l-0.6,0l-0.2,0l-0.2,0l-0.6,0c0,0,0,0-0.1,0
			c-22.6-0.2-46.8-6.4-54.7-10.7c14.8-99.9-20.8-123.2-17.7-215.8c-0.2-3.3-0.3-6.6-0.2-9.7c0.5-18,2.4-35.4,5.8-51.7h0.4h134.7h0.4
			c3.3,16.4,5.3,33.7,5.8,51.7c0.1,3.2,0,6.4-0.2,9.7C-1408.4-370.1-1444-346.8-1429.2-246.9z"/>
		<path class="st2" d="M-1423.6-462.8l0-0.5c0.1-2.1,0.2-4.2,0.2-6.1h-99.1c0,0.1,0,0.2,0,0.2c-0.1,2,0,4.3,0.1,6.7l0.1,1.3
			c0,0.2,0,0.3,0,0.5l0,1.3c-1,31.7,3.1,53.4,7.4,72.9c0.7,3-1.2,5.9-4.2,6.6c-0.4,0.1-0.8,0.1-1.2,0.1c-2.5,0-4.8-1.7-5.4-4.3
			c-4.3-19.3-8.7-42.7-7.6-75.7l0-1l-0.1-1c-0.2-2.7-0.2-5.2-0.1-7.5h-12.6c0,2,0.1,4,0.2,6.1l0,0.5l0,0.5
			c-1.3,39.6,4.8,66.3,10.7,92.2c7.1,30.8,14.4,62.7,8.4,113.7l-0.2,1.7l1.6,0.5c4.7,1.3,21.4,5.7,39.8,5.8l0.7,0l0.9,0
			c18.4-0.1,35.1-4.5,39.8-5.8l1.6-0.5l-0.2-1.7c-6-51,1.3-82.9,8.4-113.7c5.9-25.8,12-52.6,10.7-92.2L-1423.6-462.8z"/>
		<g id="Shadow_2_">
			<linearGradient id="SVGID_29_" gradientUnits="userSpaceOnUse" x1="-1484.7455" y1="-207.033" x2="-1484.7455" y2="-207.034">
				<stop  offset="5.000000e-02" style="stop-color:#FFFFFF"/>
				<stop  offset="0.95" style="stop-color:#CDCCCC"/>
			</linearGradient>
			<polygon class="st31" points="-1484.6,-207 -1484.9,-207 -1484.7,-207 			"/>
			<linearGradient id="SVGID_30_" gradientUnits="userSpaceOnUse" x1="-1484.746" y1="-108.1604" x2="-1484.746" y2="-207.4944">
				<stop  offset="5.000000e-02" style="stop-color:#FFFFFF"/>
				<stop  offset="0.95" style="stop-color:#CDCCCC"/>
			</linearGradient>
			<path class="st32" d="M-1414.3-179.2c0.9-6.2-2.2-12.4-7.7-15.4c-10.8-5.8-37.3-12.2-61.4-12.5c-0.2,0-0.3,0-0.5,0l-0.6,0h-0.1
				h-0.1l-0.1,0l-0.1,0h-0.1h-0.1l-0.5,0c-0.2,0-0.4,0-0.5,0c-24.2,0.2-50.6,6.6-61.4,12.5c-5.5,3-8.6,9.2-7.7,15.4
				c4.3,29.3,4.1,51.7,1.8,71.3h15.1c2.3-20.2,2.4-43.4-2.1-73.5c7.9-4.3,32.1-10.5,54.7-10.7c0,0,0,0,0.1,0l0.6,0l0.2,0l0.2,0
				l0.6,0c0,0,0,0,0.1,0c22.6,0.2,46.8,6.4,54.7,10.7c-4.5,30.2-4.3,53.3-2.1,73.5h15.1C-1418.4-127.4-1418.7-149.8-1414.3-179.2z"
				/>
			<linearGradient id="SVGID_31_" gradientUnits="userSpaceOnUse" x1="-1484.7455" y1="-108.1605" x2="-1484.7455" y2="-207.4942">
				<stop  offset="5.000000e-02" style="stop-color:#FFFFFF"/>
				<stop  offset="0.95" style="stop-color:#CDCCCC"/>
			</linearGradient>
			<path class="st33" d="M-1442.7-171.9l0.2-1.7l-1.6-0.5c-4.7-1.3-21.3-5.7-39.8-5.8l-0.9,0l-0.7,0c-18.5,0.1-35.2,4.5-39.8,5.8
				l-1.6,0.5l0.2,1.7c3,25.3,2.7,45.9,0.8,64h82.6C-1445.4-125.9-1445.7-146.5-1442.7-171.9z"/>
		</g>
	</g>
	<g id="BEER_BOTTLE_CAP">
		<path class="st2" d="M-1725.7-377.2l0-0.3c-0.1-1.3-2.2-2.9-4.5-4.4c-0.9-0.6-1.9-1.3-3.1-2c-4.6-3-9.8-6.6-12.3-12.3h-0.2l-0.1-1
			c-0.7-4.5-1.5-9-2.6-13.4l0-0.1l0-0.1l0-0.1l-0.2-0.7l0.2-0.1c0.2-6.3,3.5-11.6,6.7-16.2c0.8-1,1.5-2,2.1-3c1.4-2,2.9-4.5,2.4-5.7
			l-0.2-0.4l-0.1-0.3c-0.6-1.2-3.1-1.8-5.8-2.4c-1.1-0.2-2.3-0.5-3.6-0.6c-5.4-1-11.6-2.3-16.1-6.7l-0.2,0.1l-0.4-0.7l0,0l0,0
			l-0.1-0.2c-2.3-3.9-4.9-7.7-7.6-11.3l-0.1-0.2l0,0l0,0l-0.4-0.7l0.1-0.1c-2.2-5.9-1.2-12.1,0-17.5c0.3-1.2,0.6-2.4,0.8-3.6
			c0.5-2.4,1-5.3,0.1-6.2l-0.3-0.3l-0.2-0.2c-0.4-0.4-1.1-0.5-2-0.5c-1,0-2.3,0.2-4.3,0.6c-1.1,0.2-2.3,0.5-3.6,0.8
			c-3.1,0.7-6.4,1.3-9.8,1.3c-2.8,0-5.3-0.4-7.6-1.3l-0.2,0.2l-0.8-0.6c-3.6-2.7-7.4-5.2-11.3-7.6l-0.1-0.1l-0.1,0l-0.1-0.1
			l-0.6-0.4l0.1-0.2c-4.3-4.6-5.7-10.7-6.7-16.2c-0.2-1.3-0.4-2.5-0.6-3.6c-0.5-2.4-1.1-5.3-2.3-5.8l-0.4-0.1l-0.2-0.1
			c-0.2-0.1-0.3-0.1-0.6-0.1c-1.3,0-3.4,1.3-5.2,2.5c-1,0.6-1.9,1.3-3,2.1c-4.5,3.2-9.8,6.5-16.1,6.7l-0.1,0.2l-0.7-0.2h-0.1l-0.1,0
			l-0.1,0c-4.4-1.1-8.9-2-13.4-2.6l-0.2,0l-0.1,0l0,0l-0.8-0.1v-0.2c-5.7-2.6-9.4-7.7-12.4-12.4c-0.6-1.1-1.3-2.1-2-3.1
			c-1.4-2.1-3.1-4.4-4.3-4.4l-0.4,0l-0.3,0c-1.3,0.1-2.9,2.2-4.4,4.5c-0.6,0.9-1.3,1.9-2,3.1c-3,4.6-6.6,9.8-12.3,12.3v0.2l-1,0.2
			c-4.5,0.7-9,1.5-13.4,2.6l-0.1,0l-0.1,0h-0.1l-0.7,0.2l-0.1-0.2c-6.3-0.2-11.6-3.5-16.2-6.7c-1-0.8-2-1.5-3-2.1
			c-1.7-1.2-3.9-2.5-5.2-2.5c-0.2,0-0.4,0-0.5,0.1l-0.4,0.2l-0.3,0.1c-1.2,0.6-1.8,3.1-2.4,5.8c-0.2,1.1-0.5,2.3-0.6,3.6
			c-1,5.4-2.3,11.6-6.7,16.1l0.1,0.2l-0.7,0.4l0,0l0,0l-0.2,0.1c-3.9,2.3-7.7,4.9-11.3,7.6l-0.2,0.1l0,0l0,0l-0.6,0.4l-0.1-0.1
			c-2.3,0.9-4.8,1.3-7.6,1.3c-3.4,0-6.8-0.6-9.9-1.3c-1.2-0.3-2.4-0.6-3.6-0.8c-1.9-0.4-3.2-0.6-4.2-0.6c-1,0-1.7,0.2-2,0.5
			l-0.3,0.3l-0.2,0.2c-0.9,1-0.5,3.6,0.1,6.3c0.2,1.1,0.5,2.3,0.8,3.6c1.2,5.4,2.3,11.6,0,17.4l0.2,0.2l-0.6,0.8
			c-2.7,3.6-5.2,7.4-7.6,11.3l-0.1,0.1l0,0.1l0,0l-0.4,0.6l-0.2-0.1c-4.6,4.3-10.7,5.7-16.2,6.7c-1.3,0.2-2.5,0.4-3.6,0.6
			c-2.4,0.5-5.3,1.1-5.8,2.3l-0.1,0.4l-0.1,0.2c-0.5,1.3,0.9,3.5,2.5,5.8c0.6,0.9,1.3,1.9,2.1,3c3.2,4.5,6.5,9.8,6.7,16.1l0.2,0.1
			l-0.2,0.7l0,0.1l0,0.1l0,0.1c-1.1,4.4-2,8.9-2.6,13.4l0,0.2l0,0.1l0,0l-0.1,0.7h-0.2c-2.6,5.7-7.7,9.4-12.4,12.4
			c-1.1,0.6-2.1,1.3-3.1,2c-2.1,1.4-4.4,3.1-4.4,4.3l0,0.4l0,0.3c0.1,1.3,2.2,2.9,4.5,4.4c0.9,0.6,1.9,1.3,3.1,2
			c4.6,3,9.8,6.6,12.3,12.3h0.2l0.1,1c0.7,4.5,1.5,9,2.6,13.4l0,0.1l0,0.1v0.1l0.1,0.7l-0.2,0.1c-0.2,6.3-3.5,11.6-6.7,16.2
			c-0.8,1-1.5,2-2.1,3c-1.4,2-2.9,4.5-2.4,5.7l0.2,0.4l0.1,0.3c0.6,1.2,3.1,1.8,5.8,2.4c1.1,0.2,2.3,0.5,3.6,0.6
			c5.4,1,11.6,2.3,16.1,6.6l0.2-0.1l0.4,0.7l0,0l0,0l0.1,0.2c2.3,3.9,4.9,7.7,7.6,11.3l0.1,0.2l0,0l0,0l0.4,0.6l-0.1,0.1
			c2.2,5.9,1.2,12.1,0,17.5c-0.3,1.2-0.6,2.4-0.8,3.6c-0.5,2.4-1,5.3-0.1,6.2l0.3,0.3l0.2,0.2c0.4,0.4,1.1,0.5,2,0.5
			c1,0,2.3-0.2,4.3-0.6c1.1-0.2,2.3-0.5,3.6-0.8c3.1-0.7,6.4-1.3,9.8-1.3c2.8,0,5.3,0.4,7.6,1.3l0.2-0.2l0.8,0.6
			c3.6,2.7,7.4,5.2,11.3,7.6l0.1,0.1l0.1,0l0,0l0.6,0.4l-0.1,0.2c4.3,4.6,5.7,10.7,6.7,16.2c0.2,1.3,0.4,2.5,0.6,3.6
			c0.5,2.4,1.1,5.3,2.3,5.8l0.4,0.1l0.2,0.1c0.2,0.1,0.3,0.1,0.6,0.1c1.3,0,3.4-1.3,5.2-2.5c0.9-0.6,1.9-1.3,3-2.1
			c4.5-3.2,9.8-6.5,16.1-6.7l0.1-0.2l0.7,0.2h0.1l0.1,0l0.1,0c4.4,1.1,8.9,2,13.4,2.6l0.2,0l0,0l0,0l0.8,0.1v0.2
			c5.7,2.6,9.4,7.7,12.4,12.4c0.6,1.1,1.3,2.1,2,3.1c1.3,2.1,3.1,4.4,4.4,4.4l0.4,0l0.3,0c1.3-0.1,2.9-2.2,4.4-4.5
			c0.6-0.9,1.3-1.9,2-3.1c3-4.6,6.6-9.8,12.3-12.3v-0.2l1-0.2c4.5-0.7,9-1.5,13.4-2.6l0.1,0l0.1,0h0.1l0.7-0.2l0.1,0.2
			c6.3,0.2,11.6,3.5,16.1,6.7c1,0.8,2,1.5,3,2.1c1.7,1.2,3.9,2.5,5.2,2.5c0.2,0,0.4,0,0.5-0.1l0.4-0.2l0.3-0.1
			c1.2-0.6,1.8-3.1,2.4-5.8c0.2-1.1,0.5-2.3,0.6-3.6c1-5.4,2.3-11.6,6.7-16.1l-0.1-0.2l0.7-0.4l0,0l0,0l0.2-0.1
			c3.9-2.3,7.7-4.9,11.3-7.6l0.2-0.1l0,0l0,0l0.7-0.4l0.1,0.1c2.3-0.9,4.8-1.3,7.6-1.3c3.4,0,6.8,0.6,9.9,1.3
			c1.2,0.3,2.4,0.6,3.6,0.8c1.9,0.4,3.2,0.6,4.2,0.6c1,0,1.7-0.2,2-0.5l0.3-0.3l0.2-0.2c0.9-1,0.5-3.6-0.1-6.3
			c-0.2-1.1-0.5-2.3-0.8-3.6c-1.2-5.4-2.3-11.6,0-17.4l-0.2-0.2l0.6-0.8c2.7-3.6,5.2-7.4,7.6-11.3l0.1-0.1l0-0.1l0,0l0.4-0.6
			l0.2,0.1c4.6-4.3,10.7-5.7,16.2-6.7c1.3-0.2,2.5-0.4,3.6-0.6c2.4-0.5,5.3-1.1,5.8-2.3l0.1-0.4l0.1-0.2c0.5-1.3-0.9-3.5-2.5-5.8
			c-0.6-0.9-1.3-1.9-2.1-3c-3.2-4.5-6.5-9.8-6.7-16.1l-0.2-0.1l0.2-0.7v-0.1l0-0.1l0-0.1c1.1-4.4,2-8.9,2.6-13.4l0-0.2v-0.1l0-0.1
			l0.1-0.7h0.2c2.6-5.7,7.7-9.4,12.4-12.4c1.1-0.7,2.1-1.3,3.1-2c2.1-1.4,4.4-3.1,4.4-4.3L-1725.7-377.2z M-1881.6-252.9
			c-68.5,0-124.3-55.7-124.3-124.3c0-68.5,55.7-124.3,124.3-124.3s124.3,55.7,124.3,124.3C-1757.3-308.6-1813.1-252.9-1881.6-252.9z
			"/>
		<g>
			<path class="st2" d="M-1881.6-491.4c-63,0-114.3,51.3-114.3,114.3c0,63,51.3,114.3,114.3,114.3c63,0,114.3-51.3,114.3-114.3
				C-1767.3-440.1-1818.6-491.4-1881.6-491.4z M-1848-442.7l4.2-8.4l4.2,8.4l9.3,1.4l-6.7,6.6l1.6,9.3l-8.3-4.4l-8.3,4.4l1.6-9.3
				l-6.7-6.6L-1848-442.7z M-1886.9-443.9l5.3-10.7l5.3,10.7l11.8,1.7l-8.5,8.3l2,11.7l-10.5-5.5l-10.5,5.5l2-11.7l-8.5-8.3
				L-1886.9-443.9z M-1935.2-328.6c-4.4,0-10.2-1.3-10.2-7.7c0-1.7,0.4-3.6,1.3-6c2.6,2.7,4.6,3.7,6.9,3.7
				c7.6,0,10.2-10.8,10.2-18.6c0-7.2-2.3-13.1-9.8-13.1c-0.8,0-2.9,0.1-4.8,0.3l-8.5,39.6h-14.9l14.1-65.8l15.3-2.1l-4.9,23h0.6
				c8.3,0,14.9-9,14.9-16.8c0-5.9-3.8-11.2-13.7-11.2c-12.1,0-25.9,8.1-25.9,25.1c0,5.3,1.3,6.1,1.4,7c-6.8,0-11.1-2.6-11.1-9.5
				c0-14.3,18-27.4,37.6-27.4c15.2,0,22,8,22,16.5c0,6.1-3.6,12.6-10.3,16.5c8.8,1.8,12.2,8.9,12.2,16.7
				C-1912.5-348.5-1917.9-328.6-1935.2-328.6z M-1919.3-429.9l-8.3,4.4l1.6-9.3l-6.7-6.6l9.3-1.4l4.2-8.4l4.2,8.4l9.3,1.4l-6.7,6.6
				l1.6,9.3L-1919.3-429.9z M-1796.6-366.8c-5.8,0-2.9-6.8-6-6.8c-3.1,0-5,1.6-7.6,3.9l-8.3,39.3h-14.9l2.4-11.5
				c-5.6,6.7-13.1,12.1-23.4,12.1c-8.6,0-14.6-3.7-15.9-12.6c-5.6,7-13.3,12.6-23.9,12.6c-9.7,0-16.1-4.8-16.1-16.5
				c0-11.9,6.7-36.8,27.9-36.8c9.2,0,11.4,4.8,11.4,9.9c0,11.9-11.4,21.1-23.8,21.8c-0.1,1.4-0.2,2.9-0.2,4.1c0,7,2.5,8.7,7.4,8.7
				c7.5,0,12.3-3.8,17-9c0.4-12.3,7.4-35.6,27.9-35.6c9.2,0,11.4,4.8,11.4,9.9c0,11.9-11.4,21.1-23.8,21.8c-0.1,1.4-0.2,2.9-0.2,4.1
				c0,7,2.5,8.7,7.4,8.7c8.2,0,13.1-4.5,18.3-10.4l7-33.2h14.9l-1.3,6.4c3.6-3.1,7.6-6.4,12.5-6.4c4.7,0,7.1,3.8,7.1,7.8
				C-1789.2-370.7-1791.6-366.8-1796.6-366.8z"/>
			<path class="st2" d="M-1878.9-373.3c0-2.6-0.6-4.2-2.6-4.2c-5.3,0-10.3,11.1-12.4,21.3C-1885.9-356.7-1878.9-364.7-1878.9-373.3z
				"/>
			<path class="st2" d="M-1839.2-373.3c0-2.6-0.6-4.2-2.6-4.2c-5.3,0-10.3,11.1-12.4,21.3C-1846.2-356.7-1839.2-364.7-1839.2-373.3z
				"/>
		</g>
		<g id="Shadow_1_">
			<linearGradient id="SVGID_32_" gradientUnits="userSpaceOnUse" x1="-1881.6072" y1="-108.1604" x2="-1881.6072" y2="-207.4944">
				<stop  offset="5.000000e-02" style="stop-color:#FFFFFF"/>
				<stop  offset="0.95" style="stop-color:#CDCCCC"/>
			</linearGradient>
			<path class="st34" d="M-1737.4-110.5l-0.1-0.2l-0.1-0.4c-0.5-1.2-3.3-1.9-5.8-2.3c-1.1-0.2-2.3-0.5-3.6-0.6
				c-5.5-1-11.6-2.4-16.2-6.7l-0.2,0.1l-0.4-0.6l0,0l0-0.1l-0.1-0.1c-2.3-3.9-4.9-7.7-7.6-11.3l-0.6-0.8l0.2-0.2
				c-2.2-5.9-1.2-12.1,0-17.4c0.3-1.3,0.6-2.5,0.8-3.6c0.6-2.7,1-5.3,0.1-6.3l-0.2-0.2l-0.3-0.3c-0.3-0.3-1-0.5-2-0.5
				c-1,0-2.3,0.2-4.2,0.6c-1.1,0.2-2.3,0.5-3.6,0.8c-3.2,0.7-6.5,1.3-9.9,1.3c-2.8,0-5.3-0.4-7.6-1.3l-0.1,0.1l-0.7-0.4l0,0l0,0
				l-0.2-0.1c-3.6-2.7-7.4-5.2-11.3-7.6l-0.2-0.1l0,0l0,0l-0.7-0.4l0.1-0.2c-4.3-4.6-5.7-10.7-6.7-16.1c-0.2-1.3-0.4-2.5-0.6-3.6
				c-0.5-2.7-1.2-5.3-2.4-5.8l-0.3-0.1l-0.4-0.2c-0.1-0.1-0.3-0.1-0.5-0.1c-1.3,0-3.5,1.4-5.2,2.5c-1,0.6-2,1.3-3,2.1
				c-4.6,3.2-9.9,6.6-16.1,6.7l-0.1,0.2l-0.7-0.2h-0.1l-0.1,0l-0.1,0c-4.4-1.1-8.9-2-13.4-2.6l-1-0.2v-0.2
				c-5.7-2.6-9.4-7.7-12.3-12.3c-0.7-1.1-1.3-2.2-2-3.1c-1.5-2.3-3.1-4.4-4.4-4.5l-0.3,0l-0.4,0c-1.3,0-3,2.4-4.4,4.4
				c-0.7,0.9-1.3,2-2,3.1c-3,4.7-6.6,9.8-12.4,12.4v0.2l-0.8,0.1l0,0l0,0l-0.2,0c-4.5,0.7-9,1.5-13.4,2.6l-0.1,0l-0.1,0h-0.1
				l-0.7,0.2l-0.1-0.2c-6.3-0.2-11.6-3.5-16.1-6.7c-1.1-0.8-2.1-1.5-3-2.1c-1.9-1.3-3.9-2.5-5.2-2.5c-0.2,0-0.4,0-0.6,0.1l-0.2,0.1
				l-0.4,0.1c-1.2,0.5-1.9,3.3-2.3,5.8c-0.2,1.1-0.5,2.3-0.6,3.6c-1,5.5-2.4,11.6-6.7,16.2l0.1,0.2l-0.6,0.4l0,0l-0.1,0l-0.1,0.1
				c-3.9,2.3-7.7,4.9-11.3,7.6l-0.8,0.6l-0.2-0.2c-2.3,0.9-4.8,1.3-7.6,1.3c-3.4,0-6.7-0.6-9.8-1.3c-1.3-0.3-2.5-0.6-3.6-0.8
				c-2-0.4-3.3-0.6-4.3-0.6c-1,0-1.6,0.2-2,0.5l-0.2,0.2l-0.3,0.3c-0.9,0.9-0.4,3.8,0.1,6.2c0.2,1.1,0.5,2.3,0.8,3.6
				c1.2,5.4,2.3,11.7,0,17.5l0.1,0.1l-0.4,0.6l0,0l0,0l-0.1,0.2c-2.7,3.6-5.2,7.4-7.6,11.3l-0.1,0.2l0,0l0,0l-0.4,0.7l-0.2-0.1
				c-4.6,4.3-10.7,5.7-16.1,6.6c-1.3,0.2-2.5,0.4-3.6,0.6c-2.7,0.5-5.3,1.2-5.8,2.4l-0.1,0.3l-0.2,0.4c-0.2,0.6,0,1.6,0.6,2.6h33
				c20.6-40.1,62.4-67.6,110.6-67.6s89.9,27.5,110.6,67.6h33C-1737.5-108.9-1737.2-109.8-1737.4-110.5z"/>
			<linearGradient id="SVGID_33_" gradientUnits="userSpaceOnUse" x1="-1881.5956" y1="-108.1605" x2="-1881.5956" y2="-207.4941">
				<stop  offset="5.000000e-02" style="stop-color:#FFFFFF"/>
				<stop  offset="0.95" style="stop-color:#CDCCCC"/>
			</linearGradient>
			<path class="st35" d="M-1881.6-165.4c-42.4,0-79.5,23.2-99.2,57.6h198.3C-1802.1-142.2-1839.2-165.4-1881.6-165.4z"/>
		</g>
	</g>
	<g id="BEER_BOTTLE_1">
		<g id="BOTTLE">
			<path class="st2" d="M-2326.9-390.3v-22.4c0,0,0,0,0,0v-19.6c0-12.1,2.9-15.8,8.9-22.4c2.4-2.6,5.1-5.5,7.6-9.3l0.4-0.7
				c3.7-6.4,6.1-13.4,7.5-22l0.1-0.3c0.5-3,3.3-5,6.3-4.5c3,0.5,5,3.3,4.5,6.3l-0.1,0.3c-1.6,10-4.5,18.2-8.9,25.8l-0.3,0.5
				c-0.1,0.1-0.1,0.2-0.2,0.3l-0.3,0.5c-3,4.5-6.1,7.9-8.6,10.6c-5,5.5-6,6.6-6,15v21.4c-0.2,3.5-0.4,6.8-0.5,10
				c10.7-8.7,23.9-13.9,38-13.9c28.6,0,52.9,25.9,61.9,55v-71.6c0-25.2-11.5-28.8-19.9-41.2c-2.7-4.7-5.1-10.6-6.5-19.3l0-0.1
				l-12.3-97.6c1.5-0.5,2.5-1.5,2.5-2.7l-1.4-6.3c0,0-1.1-6.3-2.9-11.2c0.5,0.5,1.3,1.2,2.6,1.2c1.4,0,0.8-4,0.8-4
				c0-3-2.5-5.4-5.7-5.4h-2.1h-34.1h-2.1c-3.1,0-5.7,2.4-5.7,5.4v3.1c-0.1,0.5,0.1,0.9,0.7,0.9c1.3,0,2.1-0.7,2.6-1.2
				c0,0,0.1,0,0.1-0.1c0,0,0,0,0,0c-1.8,4.9-3,11.3-3,11.3l-1.4,6.3c0,1.2,1,2.3,2.5,2.7l-12.3,97.6l0,0.1
				c-1.4,8.8-3.8,14.7-6.5,19.3c-8.3,12.4-19.9,16-19.9,41.2v71.6C-2337.4-369.3-2332.8-383-2326.9-390.3z"/>
			<path class="st2" d="M-2278.4-264.8c-28.6,0-52.9-25.4-61.9-54.5v81.6c0,0,12.7,13.5,49.1,16.1c3.8,0.3,7.8,0.4,12.1,0.4
				c0.3,0,0.5,0,0.8,0c0.3,0,0.5,0,0.8,0c4.3,0,8.3-0.1,12.1-0.4c36.4-2.5,49.1-16.1,49.1-16.1v-81.6
				C-2225.6-290.2-2249.9-264.8-2278.4-264.8z"/>
		</g>
		<g id="text">
			<path class="st2" d="M-2304-342c3.6-2.3,5.8-6,5.8-9.7c0-4.7-3.6-10.2-13.8-10.2c-12.2,0-23.2,8-23.2,16.7c0,4,2.4,6,7.1,6h0.3
				l0-0.3c0-0.2-0.1-0.4-0.2-0.6c-0.2-0.5-0.7-1.4-0.7-3.6c0-9.7,7.8-14.8,15.5-14.8c5,0,8,2.4,8,6.4c0,4.4-3.9,9.7-8.8,9.7h0
				l3-13.8l-10,1.3l-8.6,39.7l-0.1,0.4h9.7l5.2-23.8c1.1-0.1,2.2-0.2,2.7-0.2c3.8,0,5.7,2.5,5.7,7.6c0,3.8-1.2,10.9-5.9,10.9
				c-1.4,0-2.5-0.6-4-2.1l-0.3-0.3l-0.2,0.4c-0.6,1.4-0.8,2.6-0.8,3.7c0,3.1,2.4,4.9,6.6,4.9c10.3,0,14.1-11.1,14.1-18.2
				C-2297-337.2-2299.5-340.8-2304-342z"/>
			<path class="st2" d="M-2226.4-346.4c-2.9,0-5.1,1.7-7.2,3.3l0.7-3.3h-9.7l-4.3,20.1c-2.9,3.2-5.9,6.1-10.9,6.1
				c-2.8,0-4.2-0.8-4.2-4.9c0-0.7,0.1-1.5,0.1-2.2c8-0.6,14.5-6.5,14.5-13.4c0-4.2-2.4-6.3-7.3-6.3c-13.5,0-17.1,15.4-17.3,21.5
				c-2.9,3.1-5.8,5.2-10.1,5.2c-2.7,0-4.2-0.8-4.2-4.9c0-0.7,0-1.4,0.1-2.2c8-0.6,14.5-6.5,14.5-13.4c0-4.2-2.4-6.3-7.3-6.3
				c-13.1,0-17.4,15.1-17.4,22.4c0,6.7,3.5,10.2,10.2,10.2c5.5,0,10.2-2.4,14.4-7.2c0.9,4.7,4.3,7.2,9.9,7.2c5.2,0,9.8-2.2,13.8-6.5
				l-1.3,6.1h9.7l5.1-23.7c1.5-1.4,2.6-2.2,4.3-2.2c0.5,0,0.6,0.4,0.8,1.3c0.2,1.2,0.6,2.8,2.8,2.8c3.2,0,4.9-2.4,4.9-4.8
				C-2221.8-343.9-2223.4-346.4-2226.4-346.4z M-2261.3-330.9c1.3-6,4.3-12.1,7.2-12.1c0.6,0,1.3,0.3,1.3,2.2
				C-2252.9-336-2256.8-331.5-2261.3-330.9z M-2285.6-330.9c1.3-6,4.3-12.1,7.2-12.1c0.6,0,1.3,0.3,1.3,2.2
				C-2277.1-336-2281-331.5-2285.6-330.9z"/>
		</g>
		<g id="stars">
			<polygon points="-2275.1,-388.1 -2278.4,-394.8 -2281.8,-388.1 -2289.2,-387 -2283.8,-381.8 -2285.1,-374.4 -2278.4,-377.9
				-2271.8,-374.4 -2273.1,-381.8 -2267.7,-387 			"/>
			<polygon points="-2299.6,-387.4 -2302.2,-392.7 -2304.8,-387.4 -2310.6,-386.5 -2306.4,-382.4 -2307.4,-376.6 -2302.2,-379.3
				-2296.9,-376.6 -2297.9,-382.4 -2293.7,-386.5 			"/>
			<polygon points="-2252.1,-387.4 -2254.7,-392.7 -2257.3,-387.4 -2263.2,-386.5 -2259,-382.4 -2260,-376.6 -2254.7,-379.3
				-2249.5,-376.6 -2250.5,-382.4 -2246.3,-386.5 			"/>
		</g>
		<g id="Shadow">
			<linearGradient id="SVGID_34_" gradientUnits="userSpaceOnUse" x1="-2257.6465" y1="-108.1606" x2="-2257.6465" y2="-207.5159">
				<stop  offset="5.000000e-02" style="stop-color:#FFFFFF"/>
				<stop  offset="0.95" style="stop-color:#CDCCCC"/>
			</linearGradient>
			<path class="st36" d="M-2259.7-107.8h4.1c-0.7-0.1-1.4-0.2-2.2-0.2C-2258.5-108-2259.1-108-2259.7-107.8z"/>
			<linearGradient id="SVGID_35_" gradientUnits="userSpaceOnUse" x1="-2281.9304" y1="-108.1606" x2="-2281.9304" y2="-207.5159">
				<stop  offset="5.000000e-02" style="stop-color:#FFFFFF"/>
				<stop  offset="0.95" style="stop-color:#CDCCCC"/>
			</linearGradient>
			<path class="st37" d="M-2283.9-107.8h4c-0.7-0.1-1.4-0.2-2.1-0.2C-2282.8-108-2283.4-108-2283.9-107.8z"/>
			<linearGradient id="SVGID_36_" gradientUnits="userSpaceOnUse" x1="-2312.366" y1="-108.1606" x2="-2312.366" y2="-207.5255">
				<stop  offset="5.000000e-02" style="stop-color:#FFFFFF"/>
				<stop  offset="0.95" style="stop-color:#CDCCCC"/>
			</linearGradient>
			<path class="st38" d="M-2313.4-107.8h2.1c-0.3-0.1-0.7-0.1-1-0.1C-2312.7-108-2313.1-107.9-2313.4-107.8z"/>
			<linearGradient id="SVGID_37_" gradientUnits="userSpaceOnUse" x1="-2278.4468" y1="-207.0262" x2="-2278.4468" y2="-207.034">
				<stop  offset="5.000000e-02" style="stop-color:#FFFFFF"/>
				<stop  offset="0.95" style="stop-color:#CDCCCC"/>
			</linearGradient>
			<path class="st39" d="M-2277.7-207h-1.6c0.3,0,0.5,0,0.8,0C-2278.2-207-2277.9-207-2277.7-207z"/>
			<linearGradient id="SVGID_38_" gradientUnits="userSpaceOnUse" x1="-2278.4465" y1="-108.1605" x2="-2278.4465" y2="-207.4941">
				<stop  offset="5.000000e-02" style="stop-color:#FFFFFF"/>
				<stop  offset="0.95" style="stop-color:#CDCCCC"/>
			</linearGradient>
			<path class="st40" d="M-2340.4-190.5v81.6c9-29.1,33.3-54.5,61.9-54.5c28.6,0,52.9,25.4,61.9,54.5v-81.6c0,0-12.7-13.5-49.1-16.1
				c-3.8-0.3-7.8-0.4-12.1-0.4c-0.3,0-0.5,0-0.8,0c-0.3,0-0.5,0-0.8,0c-4.3,0-8.3,0.1-12.1,0.4
				C-2327.7-204.1-2340.4-190.5-2340.4-190.5z"/>
			<linearGradient id="SVGID_39_" gradientUnits="userSpaceOnUse" x1="-2324.1799" y1="-108.1605" x2="-2324.1799" y2="-207.4943">
				<stop  offset="5.000000e-02" style="stop-color:#FFFFFF"/>
				<stop  offset="0.95" style="stop-color:#CDCCCC"/>
			</linearGradient>
			<polygon class="st41" points="-2329.7,-113.5 -2329.6,-113.1 -2328.4,-107.8 -2318.7,-107.8 -2319.9,-113.5 			"/>
			<linearGradient id="SVGID_40_" gradientUnits="userSpaceOnUse" x1="-2308.8933" y1="-108.1605" x2="-2308.8933" y2="-207.4943">
				<stop  offset="5.000000e-02" style="stop-color:#FFFFFF"/>
				<stop  offset="0.95" style="stop-color:#CDCCCC"/>
			</linearGradient>
			<path class="st42" d="M-2311.2-114.5c-4.2,0-6.6,1.8-6.6,4.9c0,0.6,0.1,1.2,0.2,1.8h4.1c0.3-0.1,0.7-0.1,1.1-0.1
				c0.4,0,0.7,0.1,1,0.1h11.2C-2302.3-111.6-2305.9-114.5-2311.2-114.5z"/>
			<linearGradient id="SVGID_41_" gradientUnits="userSpaceOnUse" x1="-2284.2246" y1="-108.1605" x2="-2284.2246" y2="-207.4939">
				<stop  offset="5.000000e-02" style="stop-color:#FFFFFF"/>
				<stop  offset="0.95" style="stop-color:#CDCCCC"/>
			</linearGradient>
			<path class="st43" d="M-2286.1-113.8c-5.1,0-8.3,2.1-9.6,6h11.7c0.5-0.2,1.2-0.2,1.9-0.2c0.7,0,1.4,0.1,2.1,0.2h7.1
				C-2276.7-111.9-2281.1-113.8-2286.1-113.8z"/>
			<linearGradient id="SVGID_42_" gradientUnits="userSpaceOnUse" x1="-2243.9363" y1="-108.1605" x2="-2243.9363" y2="-207.4943">
				<stop  offset="5.000000e-02" style="stop-color:#FFFFFF"/>
				<stop  offset="0.95" style="stop-color:#CDCCCC"/>
			</linearGradient>
			<polygon class="st44" points="-2249.4,-113.5 -2248.2,-107.8 -2238.5,-107.8 -2239.7,-113.5 			"/>
			<linearGradient id="SVGID_43_" gradientUnits="userSpaceOnUse" x1="-2259.9844" y1="-108.1605" x2="-2259.9844" y2="-207.4939">
				<stop  offset="5.000000e-02" style="stop-color:#FFFFFF"/>
				<stop  offset="0.95" style="stop-color:#CDCCCC"/>
			</linearGradient>
			<path class="st45" d="M-2271.4-107.8h11.7c0.5-0.2,1.2-0.2,1.9-0.2c0.8,0,1.5,0.1,2.2,0.2h7.1c-3.9-4-8.3-6-13.3-6
				C-2266.9-113.8-2270.2-111.8-2271.4-107.8z"/>
		</g>
	</g>
</g>
<g id="Layer_2">
	<path id="glass_1_" class="st2" d="M237.3,135h-2.9v-14.8c0,0,0,0,0,0V68.2h-20.9h-86.1H34.6v63.5l0,0v177.6c0,3.5,2.4,6.6,5.8,7.4
		c1.6,0.4,39.1,9.4,93.8,9.4c54.8,0,92.8-9,94.3-9.3c3.4-0.8,5.8-3.9,5.8-7.4v-66.8h2.9c22.8,0,40.7-13.4,40.7-30.5v-46.4
		C277.9,148.4,260.1,135,237.3,135z M134.2,310.8c-40.7,0-72-5.2-84.4-7.7V155.3h0v-72h77.7h70.9h20.9v70.5l0,0v149.2
		C206.7,305.5,175.1,310.8,134.2,310.8z M262.7,211.9c0,8.2-11.9,15.3-25.5,15.3h-2.9v-77h2.9c13.6,0,25.5,7.2,25.5,15.3V211.9z"/>
	<path id="foam" class="st2" d="M34.6,68.2h12.8c-0.4-1.9-0.6-4-0.6-6.2C47,46.3,62.3,43.4,71.3,43c3.1-0.1,5.8-2.1,6.7-4.9
		c3.9-11.2,20.6-23.7,37.2-23.7c13.3,0,25.2,5.8,31.2,15.1c1.1,1.8,3,3,5.1,3.3c2,0.3,4.2-0.2,5.9-1.5c5-4,11.6-6.2,18.6-6.2
		c12.6,0,23.7,7.3,26.3,17.5c0.7,2.9,3.2,5,6.2,5.4c7.8,1,13.6,6.6,13.6,12.9c0,2.7-1.1,5.2-2.8,7.3h15.1v3.6
		c1.7-3.4,2.6-7.1,2.6-10.9c0-12.2-8.7-22.6-21.7-26.2c-5.9-14.3-21.6-23.9-39.2-23.9c-7.6,0-15.1,1.8-21.6,5.2
		c-9.3-10-23.9-16-39.2-16c-19.5,0-41,12.7-49.3,29c-21,2.3-33.7,14.5-33.9,32.8c-0.1,5.5,0.8,10.6,2.6,15.1V68.2z"/>
	<path id="beer_2_" class="st2" d="M207.3,118.7H87v81.6c0,3.2-2.6,5.9-5.9,5.9c-3.2,0-5.9-2.6-5.9-5.9v-81.6H61.7v30.9h0v123.7
		v19.9c15.1,2.5,40.9,5.7,72.5,5.7c31.8,0,57.9-3.3,73.1-5.8v-19.9v-144L207.3,118.7L207.3,118.7z"/>
</g>
</svg>
