<svg xmlns="http://www.w3.org/2000/svg" viewBox="0 0 1283 374">
  <g fill="#FFF">
    <path d="M304.2 217.8c-5.8-2-11.2-4-15.9-6.1-4.8-2.1-8.9-4.5-12.4-7.5-3.5-2.9-6.1-6.4-8.1-10.5-1.9-4.1-2.9-9-2.9-14.8 0-11.3 4.4-20.3 13.1-27.1 8.7-6.8 20.9-10.2 36.6-10.2 5.7 0 11 .4 15.9 1.2 4.9.8 9.1 2 12.7 3.7 3.5 1.7 6.3 3.8 8.3 6.4s3 5.6 3 9.1-.8 6.4-2.4 8.9c-1.6 2.5-3.5 4.6-5.8 6.3-2.9-1.9-6.8-3.5-11.8-4.9-4.9-1.4-10.3-2.1-16.1-2.1-6 0-10.4.8-13.2 2.5-2.8 1.7-4.2 3.8-4.2 6.3 0 2 .9 3.6 2.6 4.9 1.7 1.3 4.3 2.4 7.8 3.5l10.6 3.4c12.5 4 22.1 9.1 28.8 15.2 6.7 6.2 10.1 14.6 10.1 25.2 0 11.3-4.5 20.4-13.4 27.4s-22 10.5-39.3 10.5c-6.1 0-11.8-.5-17-1.5-5.3-1-9.8-2.5-13.8-4.4-3.9-1.9-7-4.3-9.2-7.2-2.2-2.9-3.3-6.1-3.3-9.9 0-3.9 1.1-7.1 3.4-9.9 2.3-2.7 4.7-4.8 7.4-6.3 3.7 2.9 8.3 5.5 13.7 7.6 5.4 2.1 11.3 3.2 17.6 3.2 6.5 0 11.1-1 13.8-3 2.7-2 4-4.3 4-7s-1.1-4.7-3.2-6.1c-2.1-1.4-5.1-2.8-9-4.1l-8.4-2.7zM428.8 269c-7.8 0-15.1-1.1-21.8-3.3-6.7-2.2-12.6-5.5-17.5-9.9s-8.9-9.9-11.8-16.5c-2.9-6.6-4.3-14.4-4.3-23.3 0-8.8 1.4-16.3 4.3-22.6 2.9-6.3 6.6-11.5 11.3-15.5 4.6-4.1 10-7 15.9-9 6-1.9 12.1-2.9 18.3-2.9 7 0 13.5 1.1 19.2 3.2 5.8 2.1 10.8 5.1 14.9 8.8 4.2 3.7 7.4 8.2 9.8 13.4 2.3 5.2 3.5 10.8 3.5 16.9 0 4.5-1.3 8-3.8 10.4-2.5 2.4-6 3.9-10.6 4.6l-49.2 7.4c1.5 4.4 4.5 7.7 9 9.9s9.7 3.3 15.5 3.3c5.4 0 10.6-.7 15.4-2.1 4.8-1.4 8.8-3 11.9-4.9 2.1 1.3 3.9 3.2 5.4 5.6 1.5 2.4 2.2 4.9 2.2 7.6 0 6-2.8 10.4-8.4 13.4-4.3 2.3-9 3.8-14.3 4.6-5.3.5-10.2.9-14.9.9zm-5.6-78.3c-3.2 0-5.9.5-8.3 1.6-2.3 1.1-4.2 2.4-5.7 4.1-1.5 1.7-2.6 3.5-3.3 5.6-.7 2.1-1.2 4.2-1.3 6.3l34.1-5.6c-.4-2.7-1.9-5.3-4.4-8-2.4-2.7-6.2-4-11.1-4zM526.9 165.9c7.2 0 13.7.7 19.6 2.2 5.9 1.5 11 3.7 15.1 6.7s7.4 6.8 9.7 11.4c2.3 4.6 3.4 10 3.4 16.2V247c0 3.5-1 6.3-2.9 8.5s-4.2 4.1-6.9 5.7c-8.6 5.2-20.8 7.8-36.5 7.8-7 0-13.4-.7-19-2s-10.5-3.3-14.5-6c-4.1-2.7-7.2-6-9.4-10.2-2.2-4.1-3.3-8.9-3.3-14.4 0-9.2 2.7-16.2 8.2-21.1 5.4-4.9 13.9-8 25.3-9.2l26.1-2.8V202c0-3.9-1.7-6.6-5.1-8.3-3.4-1.7-8.3-2.5-14.6-2.5-5.1 0-10 .5-14.7 1.6-4.8 1.1-9.1 2.4-13 4-1.7-1.2-3.2-3-4.4-5.5-1.2-2.5-1.8-5-1.8-7.7 0-3.5.8-6.2 2.5-8.3 1.7-2.1 4.2-3.8 7.7-5.3 3.9-1.5 8.4-2.5 13.7-3.2 5.2-.5 10.1-.9 14.8-.9zm1.6 78.4c2.3 0 4.7-.2 7.5-.7 2.7-.5 4.7-1.1 6.1-1.9v-15.9l-14.4 1.2c-3.7.3-6.8 1.1-9.2 2.4-2.4 1.3-3.6 3.3-3.6 6s1 4.8 3.1 6.5c2 1.5 5.5 2.4 10.5 2.4zM629.3 265.6c-1.3.4-3.4.8-6.3 1.2-2.9.4-5.8.6-8.9.6-2.9 0-5.5-.2-7.9-.6-2.3-.4-4.3-1.2-5.9-2.4s-2.8-2.8-3.7-4.9c-.9-2.1-1.3-4.7-1.3-8.1v-59.8c0-3.1.6-5.7 1.7-7.9s2.8-4.2 4.9-5.9c2.1-1.7 4.7-3.3 7.9-4.7 3.1-1.4 6.5-2.6 10.1-3.7 3.6-1.1 7.3-1.9 11.2-2.5 3.9-.6 7.7-.9 11.6-.9 6.4 0 11.4 1.2 15.1 3.7 3.7 2.5 5.6 6.5 5.6 12.1 0 1.9-.3 3.7-.8 5.5-.5 1.8-1.2 3.4-2 4.9-2.8 0-5.6.1-8.6.4-2.9.3-5.8.7-8.6 1.2s-5.4 1.1-7.9 1.7c-2.5.6-4.6 1.3-6.3 2.1v68zM728.2 192.7c-3.3 0-6.5.5-9.5 1.6s-5.6 2.6-7.8 4.7-4 4.6-5.3 7.7c-1.3 3.1-2 6.6-2 10.8 0 8.2 2.4 14.4 7.1 18.5 4.7 4.1 10.5 6.2 17.2 6.2 4 0 7.4-.5 10.4-1.4 2.9-.9 5.5-1.9 7.8-3 2.7 1.9 4.6 3.9 6 6.1 1.3 2.2 2 4.8 2 7.9 0 5.4-2.6 9.7-7.8 12.7-5.2 3-12.4 4.5-21.5 4.5-8.4 0-15.9-1.2-22.7-3.7s-12.6-5.9-17.4-10.4c-4.9-4.5-8.6-9.8-11.3-16-2.7-6.2-4-13.2-4-20.7 0-8.8 1.4-16.4 4.3-23 2.9-6.6 6.7-12 11.7-16.2 4.9-4.3 10.6-7.4 17-9.6 6.4-2.1 13.3-3.2 20.4-3.2 9.6 0 16.9 1.7 22.1 5.2 5.2 3.5 7.8 7.9 7.8 13.4 0 2.5-.6 4.9-1.8 7.1s-2.6 4.1-4.2 5.7c-2.3-1.1-5-2.1-8.2-3.1-3.2-1.3-6.6-1.8-10.3-1.8zM866.7 265.6c-1.3.4-3.4.8-6.3 1.2-2.9.4-5.8.6-8.9.6-2.9 0-5.5-.2-7.9-.6-2.3-.4-4.3-1.2-5.9-2.4s-2.8-2.8-3.7-4.9c-.9-2.1-1.3-4.7-1.3-8.1v-44.2c0-5.4-1.4-9.3-4.1-11.5-2.7-2.2-6.1-3.3-10.1-3.3-2.7 0-5.2.3-7.6 1-2.4.7-4.3 1.5-5.8 2.4v69.8c-1.3.4-3.4.8-6.3 1.2-2.9.4-5.8.6-8.9.6-2.9 0-5.5-.2-7.9-.6-2.3-.4-4.3-1.2-5.9-2.4s-2.8-2.8-3.7-4.9c-.9-2.1-1.3-4.7-1.3-8.1V135.9c1.5-.3 3.6-.6 6.5-1.1 2.9-.5 5.7-.7 8.7-.7 2.9 0 5.5.2 7.9.6 2.3.4 4.3 1.2 5.9 2.4s2.8 2.8 3.7 4.9c.9 2.1 1.3 4.8 1.3 8.1v19.5c1.7-.7 4.4-1.4 7.9-2.3 3.5-.9 7.4-1.3 11.7-1.3 13.2 0 23.4 3.3 30.8 9.9 7.4 6.6 11.1 16.4 11.1 29.4v60.3zM937 269c-2.3 0-4.9-.1-8-.2-3.1-.1-6.2-.4-9.5-.8s-6.5-.9-9.7-1.5c-3.2-.6-6.1-1.4-8.8-2.5-7.3-2.8-11-7.6-11-14.5v-93.1c0-2.8.8-4.9 2.3-6.5 1.5-1.5 3.6-2.8 6.3-3.7 4.5-1.6 10.2-2.8 16.9-3.5 6.8-.7 13.8-1.1 20.9-1.1 17 0 30.1 2.9 39.3 8.6 9.2 5.7 13.8 14.5 13.8 26.5 0 6-1.7 11.1-5.2 15.4-3.5 4.3-8.1 7.5-14 9.5 6.6 1.9 12.2 5.3 16.6 10.2 4.5 4.9 6.7 11.1 6.7 18.5 0 13.2-4.9 22.9-14.6 29.2-9.6 6.3-23.6 9.5-42 9.5zm-12.9-76.7h14.5c5.7 0 9.9-1.1 12.5-3.2 2.6-2.1 3.9-5.2 3.9-9.4 0-3.6-1.5-6.4-4.5-8.6-3-2.1-7.5-3.2-13.5-3.2-2 0-4.3.1-6.9.2-2.6.1-4.6.3-6.1.6v23.6zm0 48.6c1.9.5 4.3.9 7.2 1.1 2.9.2 5.7.3 8.4.3 5.3 0 9.7-1.1 13.3-3.3 3.5-2.2 5.3-5.6 5.3-10.3 0-4.4-1.5-7.5-4.4-9.4-2.9-1.9-7.4-2.8-13.4-2.8h-16.3v24.4zM1050.8 165.9c7.2 0 13.7.7 19.6 2.2 5.9 1.5 11 3.7 15.1 6.7s7.4 6.8 9.7 11.4c2.3 4.6 3.4 10 3.4 16.2V247c0 3.5-1 6.3-2.9 8.5s-4.2 4.1-6.9 5.7c-8.6 5.2-20.8 7.8-36.5 7.8-7 0-13.4-.7-19-2s-10.5-3.3-14.5-6c-4.1-2.7-7.2-6-9.4-10.2-2.2-4.1-3.3-8.9-3.3-14.4 0-9.2 2.7-16.2 8.2-21.1 5.4-4.9 13.9-8 25.3-9.2l26.1-2.8V202c0-3.9-1.7-6.6-5.1-8.3-3.4-1.7-8.3-2.5-14.6-2.5-5.1 0-10 .5-14.7 1.6-4.8 1.1-9.1 2.4-13 4-1.7-1.2-3.2-3-4.4-5.5-1.2-2.5-1.8-5-1.8-7.7 0-3.5.8-6.2 2.5-8.3 1.7-2.1 4.2-3.8 7.7-5.3 3.9-1.5 8.4-2.5 13.7-3.2 5.2-.5 10.2-.9 14.8-.9zm1.6 78.4c2.3 0 4.7-.2 7.5-.7 2.7-.5 4.7-1.1 6.1-1.9v-15.9l-14.4 1.2c-3.7.3-6.8 1.1-9.2 2.4-2.4 1.3-3.6 3.3-3.6 6s1 4.8 3.1 6.5c2.1 1.5 5.6 2.4 10.5 2.4zM1153.3 265.6c-1.3.4-3.4.8-6.3 1.2-2.9.4-5.8.6-8.9.6-2.9 0-5.5-.2-7.9-.6-2.3-.4-4.3-1.2-5.9-2.4s-2.8-2.8-3.7-4.9c-.9-2.1-1.3-4.7-1.3-8.1v-59.8c0-3.1.6-5.7 1.7-7.9s2.8-4.2 4.9-5.9c2.1-1.7 4.7-3.3 7.9-4.7 3.1-1.4 6.5-2.6 10.1-3.7 3.6-1.1 7.3-1.9 11.2-2.5 3.9-.6 7.7-.9 11.6-.9 6.4 0 11.4 1.2 15.1 3.7 3.7 2.5 5.6 6.5 5.6 12.1 0 1.9-.3 3.7-.8 5.5-.5 1.8-1.2 3.4-2 4.9-2.8 0-5.6.1-8.6.4-2.9.3-5.8.7-8.6 1.2s-5.4 1.1-7.9 1.7c-2.5.6-4.6 1.3-6.3 2.1v68zM1283 236.9c0 10.1-3.8 18-11.4 23.7-7.6 5.7-18.7 8.6-33.5 8.6-5.6 0-10.8-.4-15.5-1.2-4.8-.8-8.9-2-12.3-3.7-3.4-1.7-6-3.8-8-6.3-1.9-2.5-2.9-5.5-2.9-9 0-3.2.7-5.9 2-8.1 1.3-2.2 2.9-4 4.8-5.5 3.9 2.1 8.3 4 13.3 5.7 5 1.7 10.7 2.5 17.2 2.5 4.1 0 7.3-.6 9.5-1.8s3.3-2.8 3.3-4.8c0-1.9-.8-3.3-2.4-4.4-1.6-1.1-4.3-1.9-8-2.6l-6-1.2c-11.6-2.3-20.2-5.8-25.8-10.7-5.6-4.8-8.5-11.8-8.5-20.8 0-4.9 1.1-9.4 3.2-13.4s5.1-7.3 9-10c3.9-2.7 8.5-4.7 13.9-6.2s11.3-2.2 17.8-2.2c4.9 0 9.5.4 13.9 1.1 4.3.7 8.1 1.8 11.3 3.3 3.2 1.5 5.7 3.4 7.6 5.7 1.9 2.3 2.8 5.1 2.8 8.3 0 3.1-.6 5.7-1.7 7.9s-2.6 4-4.3 5.5c-1.1-.7-2.7-1.4-4.8-2.1-2.1-.7-4.5-1.4-7-2-2.5-.6-5.1-1.1-7.7-1.5-2.6-.4-5-.6-7.1-.6-4.4 0-7.8.5-10.2 1.5s-3.6 2.6-3.6 4.7c0 1.5.7 2.7 2 3.6 1.3.9 3.9 1.8 7.6 2.6l6.2 1.4c12.8 2.9 21.8 6.9 27.2 12.1 5.4 5.2 8.1 11.8 8.1 19.9z"/>
  </g>
  <path fill="#FFF" d="M210.8 102.5c9.3-9 15-21.2 15-34.7 0-30.4-28.3-52.2-60.8-47.7-12.2-13.9-32-14.9-52-14.9-18.3 0-46.5 4.5-58.6 16.5-33-3.6-50 13.8-50 44.8 0 14 6 26.8 15.7 36.1.7 54.1 27.7 98.7 31.6 145.9 2.2 26.4-4.5 65.3-9.4 89.1-4.5 21.8 34.2 32.7 73 32.7s77.7-10.9 73.2-32.7c-4.9-23.8-11.6-62.8-9.4-89.1 4-47.2 31.1-91.9 31.7-146z"/>
  <linearGradient id="a" gradientUnits="userSpaceOnUse" x1="115.421" y1="110.31" x2="115.421" y2="353.447">
    <stop offset="0" stop-color="#E3A039"/>
    <stop offset="1" stop-color="#C6782B"/>
  </linearGradient>
  <path fill="url(#a)" d="M30 110.4c.6 49.1 24.8 89.6 28.3 132.4 2 23.9-4 59.3-8.4 80.9-4 19.8 30.7 29.7 65.4 29.7 34.8 0 69.6-9.9 65.6-29.7-4.4-21.6-10.4-57-8.4-80.9 3.6-42.8 27.8-83.4 28.3-132.5l-170.8.1z"/>
  <path fill="#FFF" d="M159.8 35.4c-10.8-12.5-28.6-13.5-46.5-13.5-16.4 0-41.7 4.1-52.5 15C31.2 33.6 16 49.4 16 77.5c0 12.7 5.4 24.3 14.1 32.8 0 0 11.5 3.2 33.7 5.5 0 .3.1.6.2.9 6.1 14.6-7.5 33-8.3 43.2-1 12.1 6.5 22.3 19.2 22.3 13.1 0 21.4-9.6 20-22.3-1.1-10.5-14.1-28.7-8.1-42.3 8.4.4 17.7.7 27.9.7 55.5 0 86.1-8.1 86.1-8.1 8.3-8.2 13.4-19.3 13.4-31.5.1-27.5-25.3-47.3-54.4-43.3z"/>
</svg>
