<svg xmlns="http://www.w3.org/2000/svg" viewBox="0 0 222.8 366.8">
  <path fill="#F6F6F6" d="M207.3 98c9.3-9 15-21.2 15-34.7 0-30.4-28.3-52.2-60.8-47.7-12.2-13.9-32-14.9-52-14.9C91.2.7 63 5.2 50.9 17.2 17.9 13.6.9 31 .9 62c0 14 6 26.8 15.7 36.1.7 54.1 27.7 98.7 31.6 145.9 2.2 26.4-4.5 65.3-9.4 89.1-4.5 21.8 34.2 32.7 73 32.7s77.7-10.9 73.2-32.7c-4.9-23.8-11.6-62.8-9.4-89.1 4-47.2 31.1-91.9 31.7-146z"/>
  <path fill="#CE812F" d="M26.5 105.9c.6 49.1 24.8 89.6 28.3 132.4 2 23.9-4 59.3-8.4 80.9-4 19.8 30.7 29.7 65.4 29.7 34.8 0 69.6-9.9 65.6-29.7-4.4-21.6-10.4-57-8.4-80.9 3.6-42.8 27.8-83.4 28.3-132.5l-170.8.1z"/>
  <path fill="#F6F6F6" d="M156.3 30.9c-10.8-12.5-28.6-13.5-46.5-13.5-16.4 0-41.7 4.1-52.5 15C27.7 29.1 12.4 45 12.4 73.1c0 12.7 5.4 24.3 14.1 32.8 0 0 11.5 3.2 33.7 5.5 0 .3.1.6.2.9 6.1 14.6-7.5 33-8.3 43.2-1 12.1 6.5 22.3 19.2 22.3 13.1 0 21.4-9.6 20-22.3-1.1-10.5-14.1-28.7-8.1-42.3 8.4.4 17.7.7 27.9.7 55.5 0 86.1-8.1 86.1-8.1 8.3-8.2 13.4-19.3 13.4-31.5.2-27.6-25.2-47.4-54.3-43.4z"/>
</svg>
